<svg version="1.1" xmlns="http://www.w3.org/2000/svg" xmlns:xlink="http://www.w3.org/1999/xlink" width="585.89599609375" height="241"><defs/><g><g><rect fill="#C0C0C0" stroke="none" x="639" y="351" width="64.158203125" height="45" transform="matrix(1 0 0 1 -622 -246)" fill-opacity="0.2"/></g><g><rect fill="#FFFFFF" stroke="none" x="632" y="344" width="64.158203125" height="45" transform="matrix(1 0 0 1 -622 -246)"/></g><g><path fill="none" stroke="#000000" paint-order="fill stroke markers" d=" M 10 98 L 74.158203125 98 L 74.158203125 143 L 10 143 L 10 98 Z Z" stroke-miterlimit="10" stroke-dasharray=""/></g><g><path fill="none" stroke="#000000" paint-order="fill stroke markers" d=" M 10 123 L 74.158203125 123" stroke-miterlimit="10" stroke-dasharray=""/></g><g><path fill="none" stroke="#000000" paint-order="fill stroke markers" d=" M 10 133 L 74.158203125 133" stroke-miterlimit="10" stroke-dasharray=""/></g><g><g><path fill="none" stroke="none"/><text fill="#000000" stroke="none" font-family="Arial" font-size="13px" font-style="normal" font-weight="bold" text-decoration="undefined" x="664.5791015625" y="357.5" text-anchor="middle" dominant-baseline="central" transform="matrix(1 0 0 1 -622 -246)">AboutUs</text></g></g><g><rect fill="#C0C0C0" stroke="none" x="639" y="263" width="51.919921875" height="45" transform="matrix(1 0 0 1 -622 -246)" fill-opacity="0.2"/></g><g><rect fill="#A3E0FF" stroke="none" x="632" y="256" width="51.919921875" height="45" transform="matrix(1 0 0 1 -622 -246)"/></g><g><path fill="none" stroke="#000000" paint-order="fill stroke markers" d=" M 10 10 L 61.919921875 10 L 61.919921875 55 L 10 55 L 10 10 Z Z" stroke-miterlimit="10" stroke-dasharray=""/></g><g><path fill="none" stroke="#000000" paint-order="fill stroke markers" d=" M 10 35 L 61.919921875 35" stroke-miterlimit="10" stroke-dasharray=""/></g><g><path fill="none" stroke="#000000" paint-order="fill stroke markers" d=" M 10 45 L 61.919921875 45" stroke-miterlimit="10" stroke-dasharray=""/></g><g><g><path fill="none" stroke="none"/><text fill="#000000" stroke="none" font-family="Arial" font-size="13px" font-style="normal" font-weight="bold" text-decoration="undefined" x="658.4599609375" y="269.5" text-anchor="middle" dominant-baseline="central" transform="matrix(1 0 0 1 -622 -246)">Grid2</text></g></g><g><rect fill="#C0C0C0" stroke="none" x="655" y="439" width="83.4296875" height="45" transform="matrix(1 0 0 1 -622 -246)" fill-opacity="0.2"/></g><g><rect fill="#A3E0FF" stroke="none" x="648" y="432" width="83.4296875" height="45" transform="matrix(1 0 0 1 -622 -246)"/></g><g><path fill="none" stroke="#000000" paint-order="fill stroke markers" d=" M 26 186 L 109.4296875 186 L 109.4296875 231 L 26 231 L 26 186 Z Z" stroke-miterlimit="10" stroke-dasharray=""/></g><g><path fill="none" stroke="#000000" paint-order="fill stroke markers" d=" M 26 211 L 109.4296875 211" stroke-miterlimit="10" stroke-dasharray=""/></g><g><path fill="none" stroke="#000000" paint-order="fill stroke markers" d=" M 26 221 L 109.4296875 221" stroke-miterlimit="10" stroke-dasharray=""/></g><g><g><path fill="none" stroke="none"/><text fill="#000000" stroke="none" font-family="Arial" font-size="13px" font-style="normal" font-weight="bold" text-decoration="undefined" x="690.21484375" y="445.5" text-anchor="middle" dominant-baseline="central" transform="matrix(1 0 0 1 -622 -246)">Typography</text></g></g><g><rect fill="#C0C0C0" stroke="none" x="807" y="335" width="396.89599609375" height="86" transform="matrix(1 0 0 1 -622 -246)" fill-opacity="0.2"/></g><g><rect fill="#FFFFFF" stroke="none" x="800" y="328" width="396.89599609375" height="86" transform="matrix(1 0 0 1 -622 -246)"/></g><g><path fill="none" stroke="#000000" paint-order="fill stroke markers" d=" M 178 82 L 574.89599609375 82 L 574.89599609375 168 L 178 168 L 178 82 Z Z" stroke-miterlimit="10" stroke-dasharray=""/></g><g><path fill="none" stroke="#000000" paint-order="fill stroke markers" d=" M 178 107 L 574.89599609375 107" stroke-miterlimit="10" stroke-dasharray=""/></g><g><path fill="none" stroke="#000000" paint-order="fill stroke markers" d=" M 178 145 L 574.89599609375 145" stroke-miterlimit="10" stroke-dasharray=""/></g><g><g><path fill="none" stroke="none"/><text fill="#000000" stroke="none" font-family="Arial" font-size="13px" font-style="normal" font-weight="bold" text-decoration="undefined" x="998.947998046875" y="341.5" text-anchor="middle" dominant-baseline="central" transform="matrix(1 0 0 1 -622 -246)">PersonCard</text></g></g><g><g><path fill="none" stroke="none"/><text fill="#000000" stroke="none" font-family="Arial" font-size="13px" font-style="normal" font-weight="normal" text-decoration="undefined" x="805" y="364.5" text-anchor="start" dominant-baseline="central" transform="matrix(1 0 0 1 -622 -246)">-name: string</text></g></g><g><g><path fill="none" stroke="none"/><text fill="#000000" stroke="none" font-family="Arial" font-size="13px" font-style="normal" font-weight="normal" text-decoration="undefined" x="805" y="379.5" text-anchor="start" dominant-baseline="central" transform="matrix(1 0 0 1 -622 -246)">-GitHubUsername: string</text></g></g><g><g><path fill="none" stroke="none"/><text fill="#000000" stroke="none" font-family="Arial" font-size="13px" font-style="normal" font-weight="normal" text-decoration="undefined" x="805" y="402.5" text-anchor="start" dominant-baseline="central" transform="matrix(1 0 0 1 -622 -246)">+PersonCard(name: string, GitHubUsername: string): JSX.element</text></g></g><g><path fill="none" stroke="#000000" paint-order="fill stroke markers" d=" M 37 56 L 40 97" stroke-miterlimit="10" stroke-dasharray=""/></g><g><path fill="#000000" stroke="none" paint-order="stroke fill markers" d=" M 35.06007829717964 87.17161388782449 L 40 97 L 43.456666333444105 86.55722939736614 L 38.39453595714531 75.05865808098554"/></g><g><path fill="none" stroke="#000000" paint-order="fill stroke markers" d=" M 35.06007829717964 87.17161388782449 L 40 97 L 43.456666333444105 86.55722939736614 L 38.39453595714531 75.05865808098554 L 35.06007829717964 87.17161388782449" stroke-miterlimit="10" stroke-dasharray=""/></g><g><path fill="none" stroke="#000000" paint-order="fill stroke markers" d=" M 177 122 L 75 120" stroke-miterlimit="10" stroke-dasharray=""/></g><g><path fill="#000000" stroke="none" paint-order="stroke fill markers" d=" M 85.24324551313362 115.99052106157563 L 75 120 L 85.07819811007994 124.40793861731089 L 96.9957720764479 120.43128964855782"/></g><g><path fill="none" stroke="#000000" paint-order="fill stroke markers" d=" M 85.24324551313362 115.99052106157563 L 75 120 L 85.07819811007994 124.40793861731089 L 96.9957720764479 120.43128964855782 L 85.24324551313362 115.99052106157563" stroke-miterlimit="10" stroke-dasharray=""/></g><g><path fill="none" stroke="#000000" paint-order="fill stroke markers" d=" M 60 185 L 49 144" stroke-miterlimit="10" stroke-dasharray=""/></g><g><path fill="#000000" stroke="none" paint-order="stroke fill markers" d=" M 55.6991719363283 152.7247404183455 L 49 144 L 47.56770679060787 154.90635301841678 L 54.70082845392176 165.24854241916267"/></g><g><path fill="none" stroke="#000000" paint-order="fill stroke markers" d=" M 55.6991719363283 152.7247404183455 L 49 144 L 47.56770679060787 154.90635301841678 L 54.70082845392176 165.24854241916267 L 55.6991719363283 152.7247404183455" stroke-miterlimit="10" stroke-dasharray=""/></g><g><g><path fill="none" stroke="none"/><text fill="#000000" stroke="none" font-family="Arial" font-size="13px" font-style="normal" font-weight="normal" text-decoration="undefined" x="725" y="341" text-anchor="start" dominant-baseline="text-before-edge" transform="matrix(1 0 0 1 -622 -246)">7</text></g></g></g></svg>