<?xml version="1.0" encoding="utf-8"?>
<svg height="198" version="1.1" width="325" xmlns="http://www.w3.org/2000/svg" xmlns:xlink="http://www.w3.org/1999/xlink"><defs/><g><text dominant-baseline="alphabetic" fill="#cfcfcf" font-family="Arial" font-size="8px" font-style="normal" font-weight="normal" stroke="none" text-anchor="start" text-decoration="undefined" transform="matrix(1 0 0 1 0 0)" x="0" y="0"></text><text dominant-baseline="alphabetic" fill="#cfcfcf" font-family="Arial" font-size="8px" font-style="normal" font-weight="normal" stroke="none" text-anchor="start" text-decoration="undefined" transform="matrix(1 0 0 1 0 0)" x="0" y="12"></text><text dominant-baseline="alphabetic" fill="#cfcfcf" font-family="Arial" font-size="8px" font-style="normal" font-weight="normal" stroke="none" text-anchor="start" text-decoration="undefined" transform="matrix(1 0 0 1 0 0)" x="0" y="24"></text><text dominant-baseline="alphabetic" fill="#cfcfcf" font-family="Arial" font-size="8px" font-style="normal" font-weight="normal" stroke="none" text-anchor="start" text-decoration="undefined" transform="matrix(1 0 0 1 0 0)" x="0" y="36"></text><text dominant-baseline="alphabetic" fill="#cfcfcf" font-family="Arial" font-size="8px" font-style="normal" font-weight="normal" stroke="none" text-anchor="start" text-decoration="undefined" transform="matrix(1 0 0 1 0 0)" x="0" y="48"></text><text dominant-baseline="alphabetic" fill="#cfcfcf" font-family="Arial" font-size="8px" font-style="normal" font-weight="normal" stroke="none" text-anchor="start" text-decoration="undefined" transform="matrix(1 0 0 1 0 0)" x="0" y="60"></text><text dominant-baseline="alphabetic" fill="#cfcfcf" font-family="Arial" font-size="8px" font-style="normal" font-weight="normal" stroke="none" text-anchor="start" text-decoration="undefined" transform="matrix(1 0 0 1 0 0)" x="0" y="72"></text><text dominant-baseline="alphabetic" fill="#cfcfcf" font-family="Arial" font-size="8px" font-style="normal" font-weight="normal" stroke="none" text-anchor="start" text-decoration="undefined" transform="matrix(1 0 0 1 0 0)" x="0" y="84"></text><text dominant-baseline="alphabetic" fill="#cfcfcf" font-family="Arial" font-size="8px" font-style="normal" font-weight="normal" stroke="none" text-anchor="start" text-decoration="undefined" transform="matrix(1 0 0 1 0 0)" x="0" y="96"></text><text dominant-baseline="alphabetic" fill="#cfcfcf" font-family="Arial" font-size="8px" font-style="normal" font-weight="normal" stroke="none" text-anchor="start" text-decoration="undefined" transform="matrix(1 0 0 1 0 0)" x="0" y="108"></text><text dominant-baseline="alphabetic" fill="#cfcfcf" font-family="Arial" font-size="8px" font-style="normal" font-weight="normal" stroke="none" text-anchor="start" text-decoration="undefined" transform="matrix(1 0 0 1 0 0)" x="0" y="120"></text><text dominant-baseline="alphabetic" fill="#cfcfcf" font-family="Arial" font-size="8px" font-style="normal" font-weight="normal" stroke="none" text-anchor="start" text-decoration="undefined" transform="matrix(1 0 0 1 0 0)" x="0" y="132"></text><text dominant-baseline="alphabetic" fill="#cfcfcf" font-family="Arial" font-size="8px" font-style="normal" font-weight="normal" stroke="none" text-anchor="start" text-decoration="undefined" transform="matrix(1 0 0 1 0 0)" x="0" y="144"></text><text dominant-baseline="alphabetic" fill="#cfcfcf" font-family="Arial" font-size="8px" font-style="normal" font-weight="normal" stroke="none" text-anchor="start" text-decoration="undefined" transform="matrix(1 0 0 1 0 0)" x="0" y="156"></text><text dominant-baseline="alphabetic" fill="#cfcfcf" font-family="Arial" font-size="8px" font-style="normal" font-weight="normal" stroke="none" text-anchor="start" text-decoration="undefined" transform="matrix(1 0 0 1 0 0)" x="0" y="168"></text><text dominant-baseline="alphabetic" fill="#cfcfcf" font-family="Arial" font-size="8px" font-style="normal" font-weight="normal" stroke="none" text-anchor="start" text-decoration="undefined" transform="matrix(1 0 0 1 0 0)" x="0" y="180"></text><text dominant-baseline="alphabetic" fill="#cfcfcf" font-family="Arial" font-size="8px" font-style="normal" font-weight="normal" stroke="none" text-anchor="start" text-decoration="undefined" transform="matrix(1 0 0 1 0 0)" x="0" y="192"></text><text dominant-baseline="alphabetic" fill="#cfcfcf" font-family="Arial" font-size="8px" font-style="normal" font-weight="normal" stroke="none" text-anchor="start" text-decoration="undefined" transform="matrix(1 0 0 1 0 0)" x="70" y="0"></text><text dominant-baseline="alphabetic" fill="#cfcfcf" font-family="Arial" font-size="8px" font-style="normal" font-weight="normal" stroke="none" text-anchor="start" text-decoration="undefined" transform="matrix(1 0 0 1 0 0)" x="70" y="12"></text><text dominant-baseline="alphabetic" fill="#cfcfcf" font-family="Arial" font-size="8px" font-style="normal" font-weight="normal" stroke="none" text-anchor="start" text-decoration="undefined" transform="matrix(1 0 0 1 0 0)" x="70" y="24"></text><text dominant-baseline="alphabetic" fill="#cfcfcf" font-family="Arial" font-size="8px" font-style="normal" font-weight="normal" stroke="none" text-anchor="start" text-decoration="undefined" transform="matrix(1 0 0 1 0 0)" x="70" y="36"></text><text dominant-baseline="alphabetic" fill="#cfcfcf" font-family="Arial" font-size="8px" font-style="normal" font-weight="normal" stroke="none" text-anchor="start" text-decoration="undefined" transform="matrix(1 0 0 1 0 0)" x="70" y="48"></text><text dominant-baseline="alphabetic" fill="#cfcfcf" font-family="Arial" font-size="8px" font-style="normal" font-weight="normal" stroke="none" text-anchor="start" text-decoration="undefined" transform="matrix(1 0 0 1 0 0)" x="70" y="60"></text><text dominant-baseline="alphabetic" fill="#cfcfcf" font-family="Arial" font-size="8px" font-style="normal" font-weight="normal" stroke="none" text-anchor="start" text-decoration="undefined" transform="matrix(1 0 0 1 0 0)" x="70" y="72"></text><text dominant-baseline="alphabetic" fill="#cfcfcf" font-family="Arial" font-size="8px" font-style="normal" font-weight="normal" stroke="none" text-anchor="start" text-decoration="undefined" transform="matrix(1 0 0 1 0 0)" x="70" y="84"></text><text dominant-baseline="alphabetic" fill="#cfcfcf" font-family="Arial" font-size="8px" font-style="normal" font-weight="normal" stroke="none" text-anchor="start" text-decoration="undefined" transform="matrix(1 0 0 1 0 0)" x="70" y="96"></text><text dominant-baseline="alphabetic" fill="#cfcfcf" font-family="Arial" font-size="8px" font-style="normal" font-weight="normal" stroke="none" text-anchor="start" text-decoration="undefined" transform="matrix(1 0 0 1 0 0)" x="70" y="108"></text><text dominant-baseline="alphabetic" fill="#cfcfcf" font-family="Arial" font-size="8px" font-style="normal" font-weight="normal" stroke="none" text-anchor="start" text-decoration="undefined" transform="matrix(1 0 0 1 0 0)" x="70" y="120"></text><text dominant-baseline="alphabetic" fill="#cfcfcf" font-family="Arial" font-size="8px" font-style="normal" font-weight="normal" stroke="none" text-anchor="start" text-decoration="undefined" transform="matrix(1 0 0 1 0 0)" x="70" y="132"></text><text dominant-baseline="alphabetic" fill="#cfcfcf" font-family="Arial" font-size="8px" font-style="normal" font-weight="normal" stroke="none" text-anchor="start" text-decoration="undefined" transform="matrix(1 0 0 1 0 0)" x="70" y="144"></text><text dominant-baseline="alphabetic" fill="#cfcfcf" font-family="Arial" font-size="8px" font-style="normal" font-weight="normal" stroke="none" text-anchor="start" text-decoration="undefined" transform="matrix(1 0 0 1 0 0)" x="70" y="156"></text><text dominant-baseline="alphabetic" fill="#cfcfcf" font-family="Arial" font-size="8px" font-style="normal" font-weight="normal" stroke="none" text-anchor="start" text-decoration="undefined" transform="matrix(1 0 0 1 0 0)" x="70" y="168"></text><text dominant-baseline="alphabetic" fill="#cfcfcf" font-family="Arial" font-size="8px" font-style="normal" font-weight="normal" stroke="none" text-anchor="start" text-decoration="undefined" transform="matrix(1 0 0 1 0 0)" x="70" y="180"></text><text dominant-baseline="alphabetic" fill="#cfcfcf" font-family="Arial" font-size="8px" font-style="normal" font-weight="normal" stroke="none" text-anchor="start" text-decoration="undefined" transform="matrix(1 0 0 1 0 0)" x="70" y="192"></text><text dominant-baseline="alphabetic" fill="#cfcfcf" font-family="Arial" font-size="8px" font-style="normal" font-weight="normal" stroke="none" text-anchor="start" text-decoration="undefined" transform="matrix(1 0 0 1 0 0)" x="140" y="0"></text><text dominant-baseline="alphabetic" fill="#cfcfcf" font-family="Arial" font-size="8px" font-style="normal" font-weight="normal" stroke="none" text-anchor="start" text-decoration="undefined" transform="matrix(1 0 0 1 0 0)" x="140" y="12"></text><text dominant-baseline="alphabetic" fill="#cfcfcf" font-family="Arial" font-size="8px" font-style="normal" font-weight="normal" stroke="none" text-anchor="start" text-decoration="undefined" transform="matrix(1 0 0 1 0 0)" x="140" y="24"></text><text dominant-baseline="alphabetic" fill="#cfcfcf" font-family="Arial" font-size="8px" font-style="normal" font-weight="normal" stroke="none" text-anchor="start" text-decoration="undefined" transform="matrix(1 0 0 1 0 0)" x="140" y="36"></text><text dominant-baseline="alphabetic" fill="#cfcfcf" font-family="Arial" font-size="8px" font-style="normal" font-weight="normal" stroke="none" text-anchor="start" text-decoration="undefined" transform="matrix(1 0 0 1 0 0)" x="140" y="48"></text><text dominant-baseline="alphabetic" fill="#cfcfcf" font-family="Arial" font-size="8px" font-style="normal" font-weight="normal" stroke="none" text-anchor="start" text-decoration="undefined" transform="matrix(1 0 0 1 0 0)" x="140" y="60"></text><text dominant-baseline="alphabetic" fill="#cfcfcf" font-family="Arial" font-size="8px" font-style="normal" font-weight="normal" stroke="none" text-anchor="start" text-decoration="undefined" transform="matrix(1 0 0 1 0 0)" x="140" y="72"></text><text dominant-baseline="alphabetic" fill="#cfcfcf" font-family="Arial" font-size="8px" font-style="normal" font-weight="normal" stroke="none" text-anchor="start" text-decoration="undefined" transform="matrix(1 0 0 1 0 0)" x="140" y="84"></text><text dominant-baseline="alphabetic" fill="#cfcfcf" font-family="Arial" font-size="8px" font-style="normal" font-weight="normal" stroke="none" text-anchor="start" text-decoration="undefined" transform="matrix(1 0 0 1 0 0)" x="140" y="96"></text><text dominant-baseline="alphabetic" fill="#cfcfcf" font-family="Arial" font-size="8px" font-style="normal" font-weight="normal" stroke="none" text-anchor="start" text-decoration="undefined" transform="matrix(1 0 0 1 0 0)" x="140" y="108"></text><text dominant-baseline="alphabetic" fill="#cfcfcf" font-family="Arial" font-size="8px" font-style="normal" font-weight="normal" stroke="none" text-anchor="start" text-decoration="undefined" transform="matrix(1 0 0 1 0 0)" x="140" y="120"></text><text dominant-baseline="alphabetic" fill="#cfcfcf" font-family="Arial" font-size="8px" font-style="normal" font-weight="normal" stroke="none" text-anchor="start" text-decoration="undefined" transform="matrix(1 0 0 1 0 0)" x="140" y="132"></text><text dominant-baseline="alphabetic" fill="#cfcfcf" font-family="Arial" font-size="8px" font-style="normal" font-weight="normal" stroke="none" text-anchor="start" text-decoration="undefined" transform="matrix(1 0 0 1 0 0)" x="140" y="144"></text><text dominant-baseline="alphabetic" fill="#cfcfcf" font-family="Arial" font-size="8px" font-style="normal" font-weight="normal" stroke="none" text-anchor="start" text-decoration="undefined" transform="matrix(1 0 0 1 0 0)" x="140" y="156"></text><text dominant-baseline="alphabetic" fill="#cfcfcf" font-family="Arial" font-size="8px" font-style="normal" font-weight="normal" stroke="none" text-anchor="start" text-decoration="undefined" transform="matrix(1 0 0 1 0 0)" x="140" y="168"></text><text dominant-baseline="alphabetic" fill="#cfcfcf" font-family="Arial" font-size="8px" font-style="normal" font-weight="normal" stroke="none" text-anchor="start" text-decoration="undefined" transform="matrix(1 0 0 1 0 0)" x="140" y="180"></text><text dominant-baseline="alphabetic" fill="#cfcfcf" font-family="Arial" font-size="8px" font-style="normal" font-weight="normal" stroke="none" text-anchor="start" text-decoration="undefined" transform="matrix(1 0 0 1 0 0)" x="140" y="192"></text><text dominant-baseline="alphabetic" fill="#cfcfcf" font-family="Arial" font-size="8px" font-style="normal" font-weight="normal" stroke="none" text-anchor="start" text-decoration="undefined" transform="matrix(1 0 0 1 0 0)" x="210" y="0"></text><text dominant-baseline="alphabetic" fill="#cfcfcf" font-family="Arial" font-size="8px" font-style="normal" font-weight="normal" stroke="none" text-anchor="start" text-decoration="undefined" transform="matrix(1 0 0 1 0 0)" x="210" y="12"></text><text dominant-baseline="alphabetic" fill="#cfcfcf" font-family="Arial" font-size="8px" font-style="normal" font-weight="normal" stroke="none" text-anchor="start" text-decoration="undefined" transform="matrix(1 0 0 1 0 0)" x="210" y="24"></text><text dominant-baseline="alphabetic" fill="#cfcfcf" font-family="Arial" font-size="8px" font-style="normal" font-weight="normal" stroke="none" text-anchor="start" text-decoration="undefined" transform="matrix(1 0 0 1 0 0)" x="210" y="36"></text><text dominant-baseline="alphabetic" fill="#cfcfcf" font-family="Arial" font-size="8px" font-style="normal" font-weight="normal" stroke="none" text-anchor="start" text-decoration="undefined" transform="matrix(1 0 0 1 0 0)" x="210" y="48"></text><text dominant-baseline="alphabetic" fill="#cfcfcf" font-family="Arial" font-size="8px" font-style="normal" font-weight="normal" stroke="none" text-anchor="start" text-decoration="undefined" transform="matrix(1 0 0 1 0 0)" x="210" y="60"></text><text dominant-baseline="alphabetic" fill="#cfcfcf" font-family="Arial" font-size="8px" font-style="normal" font-weight="normal" stroke="none" text-anchor="start" text-decoration="undefined" transform="matrix(1 0 0 1 0 0)" x="210" y="72"></text><text dominant-baseline="alphabetic" fill="#cfcfcf" font-family="Arial" font-size="8px" font-style="normal" font-weight="normal" stroke="none" text-anchor="start" text-decoration="undefined" transform="matrix(1 0 0 1 0 0)" x="210" y="84"></text><text dominant-baseline="alphabetic" fill="#cfcfcf" font-family="Arial" font-size="8px" font-style="normal" font-weight="normal" stroke="none" text-anchor="start" text-decoration="undefined" transform="matrix(1 0 0 1 0 0)" x="210" y="96"></text><text dominant-baseline="alphabetic" fill="#cfcfcf" font-family="Arial" font-size="8px" font-style="normal" font-weight="normal" stroke="none" text-anchor="start" text-decoration="undefined" transform="matrix(1 0 0 1 0 0)" x="210" y="108"></text><text dominant-baseline="alphabetic" fill="#cfcfcf" font-family="Arial" font-size="8px" font-style="normal" font-weight="normal" stroke="none" text-anchor="start" text-decoration="undefined" transform="matrix(1 0 0 1 0 0)" x="210" y="120"></text><text dominant-baseline="alphabetic" fill="#cfcfcf" font-family="Arial" font-size="8px" font-style="normal" font-weight="normal" stroke="none" text-anchor="start" text-decoration="undefined" transform="matrix(1 0 0 1 0 0)" x="210" y="132"></text><text dominant-baseline="alphabetic" fill="#cfcfcf" font-family="Arial" font-size="8px" font-style="normal" font-weight="normal" stroke="none" text-anchor="start" text-decoration="undefined" transform="matrix(1 0 0 1 0 0)" x="210" y="144"></text><text dominant-baseline="alphabetic" fill="#cfcfcf" font-family="Arial" font-size="8px" font-style="normal" font-weight="normal" stroke="none" text-anchor="start" text-decoration="undefined" transform="matrix(1 0 0 1 0 0)" x="210" y="156"></text><text dominant-baseline="alphabetic" fill="#cfcfcf" font-family="Arial" font-size="8px" font-style="normal" font-weight="normal" stroke="none" text-anchor="start" text-decoration="undefined" transform="matrix(1 0 0 1 0 0)" x="210" y="168"></text><text dominant-baseline="alphabetic" fill="#cfcfcf" font-family="Arial" font-size="8px" font-style="normal" font-weight="normal" stroke="none" text-anchor="start" text-decoration="undefined" transform="matrix(1 0 0 1 0 0)" x="210" y="180"></text><text dominant-baseline="alphabetic" fill="#cfcfcf" font-family="Arial" font-size="8px" font-style="normal" font-weight="normal" stroke="none" text-anchor="start" text-decoration="undefined" transform="matrix(1 0 0 1 0 0)" x="210" y="192"></text><text dominant-baseline="alphabetic" fill="#cfcfcf" font-family="Arial" font-size="8px" font-style="normal" font-weight="normal" stroke="none" text-anchor="start" text-decoration="undefined" transform="matrix(1 0 0 1 0 0)" x="280" y="0"></text><text dominant-baseline="alphabetic" fill="#cfcfcf" font-family="Arial" font-size="8px" font-style="normal" font-weight="normal" stroke="none" text-anchor="start" text-decoration="undefined" transform="matrix(1 0 0 1 0 0)" x="280" y="12"></text><text dominant-baseline="alphabetic" fill="#cfcfcf" font-family="Arial" font-size="8px" font-style="normal" font-weight="normal" stroke="none" text-anchor="start" text-decoration="undefined" transform="matrix(1 0 0 1 0 0)" x="280" y="24"></text><text dominant-baseline="alphabetic" fill="#cfcfcf" font-family="Arial" font-size="8px" font-style="normal" font-weight="normal" stroke="none" text-anchor="start" text-decoration="undefined" transform="matrix(1 0 0 1 0 0)" x="280" y="36"></text><text dominant-baseline="alphabetic" fill="#cfcfcf" font-family="Arial" font-size="8px" font-style="normal" font-weight="normal" stroke="none" text-anchor="start" text-decoration="undefined" transform="matrix(1 0 0 1 0 0)" x="280" y="48"></text><text dominant-baseline="alphabetic" fill="#cfcfcf" font-family="Arial" font-size="8px" font-style="normal" font-weight="normal" stroke="none" text-anchor="start" text-decoration="undefined" transform="matrix(1 0 0 1 0 0)" x="280" y="60"></text><text dominant-baseline="alphabetic" fill="#cfcfcf" font-family="Arial" font-size="8px" font-style="normal" font-weight="normal" stroke="none" text-anchor="start" text-decoration="undefined" transform="matrix(1 0 0 1 0 0)" x="280" y="72"></text><text dominant-baseline="alphabetic" fill="#cfcfcf" font-family="Arial" font-size="8px" font-style="normal" font-weight="normal" stroke="none" text-anchor="start" text-decoration="undefined" transform="matrix(1 0 0 1 0 0)" x="280" y="84"></text><text dominant-baseline="alphabetic" fill="#cfcfcf" font-family="Arial" font-size="8px" font-style="normal" font-weight="normal" stroke="none" text-anchor="start" text-decoration="undefined" transform="matrix(1 0 0 1 0 0)" x="280" y="96"></text><text dominant-baseline="alphabetic" fill="#cfcfcf" font-family="Arial" font-size="8px" font-style="normal" font-weight="normal" stroke="none" text-anchor="start" text-decoration="undefined" transform="matrix(1 0 0 1 0 0)" x="280" y="108"></text><text dominant-baseline="alphabetic" fill="#cfcfcf" font-family="Arial" font-size="8px" font-style="normal" font-weight="normal" stroke="none" text-anchor="start" text-decoration="undefined" transform="matrix(1 0 0 1 0 0)" x="280" y="120"></text><text dominant-baseline="alphabetic" fill="#cfcfcf" font-family="Arial" font-size="8px" font-style="normal" font-weight="normal" stroke="none" text-anchor="start" text-decoration="undefined" transform="matrix(1 0 0 1 0 0)" x="280" y="132"></text><text dominant-baseline="alphabetic" fill="#cfcfcf" font-family="Arial" font-size="8px" font-style="normal" font-weight="normal" stroke="none" text-anchor="start" text-decoration="undefined" transform="matrix(1 0 0 1 0 0)" x="280" y="144"></text><text dominant-baseline="alphabetic" fill="#cfcfcf" font-family="Arial" font-size="8px" font-style="normal" font-weight="normal" stroke="none" text-anchor="start" text-decoration="undefined" transform="matrix(1 0 0 1 0 0)" x="280" y="156"></text><text dominant-baseline="alphabetic" fill="#cfcfcf" font-family="Arial" font-size="8px" font-style="normal" font-weight="normal" stroke="none" text-anchor="start" text-decoration="undefined" transform="matrix(1 0 0 1 0 0)" x="280" y="168"></text><text dominant-baseline="alphabetic" fill="#cfcfcf" font-family="Arial" font-size="8px" font-style="normal" font-weight="normal" stroke="none" text-anchor="start" text-decoration="undefined" transform="matrix(1 0 0 1 0 0)" x="280" y="180"></text><text dominant-baseline="alphabetic" fill="#cfcfcf" font-family="Arial" font-size="8px" font-style="normal" font-weight="normal" stroke="none" text-anchor="start" text-decoration="undefined" transform="matrix(1 0 0 1 0 0)" x="280" y="192"></text><g><rect fill="#C0C0C0" fill-opacity="0.2" height="71" stroke="none" transform="matrix(1 0 0 1 -470 -270)" width="304" x="487" y="287"/></g><g><rect fill="#ffffff" height="71" stroke="none" transform="matrix(1 0 0 1 -470 -270)" width="304" x="480" y="280"/></g><g><path d=" M 10 10 L 314 10 L 314 81 L 10 81 L 10 10 Z Z" fill="none" paint-order="fill stroke markers" stroke="#000000" stroke-dasharray="" stroke-miterlimit="10"/></g><g><path d=" M 10 35 L 314 35" fill="none" paint-order="fill stroke markers" stroke="#000000" stroke-dasharray="" stroke-miterlimit="10"/></g><g><path d=" M 10 45 L 314 45" fill="none" paint-order="fill stroke markers" stroke="#000000" stroke-dasharray="" stroke-miterlimit="10"/></g><g><g><path fill="none" stroke="none"/><text dominant-baseline="central" fill="#000000" font-family="Arial" font-size="13px" font-style="normal" font-weight="bold" stroke="none" text-anchor="middle" text-decoration="undefined" transform="matrix(1 0 0 1 -470 -270)" x="632.5" y="293.5">CreateWorkflowService</text></g></g><g><g><path fill="none" stroke="none"/><text dominant-baseline="central" fill="#000000" font-family="Arial" font-size="13px" font-style="normal" font-weight="normal" stroke="none" text-anchor="start" text-decoration="undefined" transform="matrix(1 0 0 1 -470 -270)" x="485" y="326.5">+newWorkflow(name: string, accessToken: string):</text><text dominant-baseline="central" fill="#000000" font-family="Arial" font-size="13px" font-style="normal" font-weight="normal" stroke="none" text-anchor="start" text-decoration="undefined" transform="matrix(1 0 0 1 -470 -270)" x="485" y="339.5">CreateWorkflowResponse</text></g></g><g><rect fill="#C0C0C0" fill-opacity="0.2" height="58" stroke="none" transform="matrix(1 0 0 1 -470 -270)" width="170.85595703125" x="559" y="407"/></g><g><rect fill="#ffffff" height="58" stroke="none" transform="matrix(1 0 0 1 -470 -270)" width="170.85595703125" x="552" y="400"/></g><g><path d=" M 82 130 L 252.85595703125 130 L 252.85595703125 188 L 82 188 L 82 130 Z Z" fill="none" paint-order="fill stroke markers" stroke="#000000" stroke-dasharray="" stroke-miterlimit="10"/></g><g><path d=" M 82 155 L 252.85595703125 155" fill="none" paint-order="fill stroke markers" stroke="#000000" stroke-dasharray="" stroke-miterlimit="10"/></g><g><path d=" M 82 178 L 252.85595703125 178" fill="none" paint-order="fill stroke markers" stroke="#000000" stroke-dasharray="" stroke-miterlimit="10"/></g><g><g><path fill="none" stroke="none"/><text dominant-baseline="central" fill="#000000" font-family="Arial" font-size="13px" font-style="normal" font-weight="bold" stroke="none" text-anchor="middle" text-decoration="undefined" transform="matrix(1 0 0 1 -470 -270)" x="637.927978515625" y="413.5">CreateWorkflowResponse</text></g></g><g><g><path fill="none" stroke="none"/><text dominant-baseline="central" fill="#000000" font-family="Arial" font-size="13px" font-style="normal" font-weight="normal" stroke="none" text-anchor="start" text-decoration="undefined" transform="matrix(1 0 0 1 -470 -270)" x="557" y="436.5">+name: string</text></g></g><g><path d=" M 166 81 L 166 130" fill="none" paint-order="fill stroke markers" stroke="#000000" stroke-dasharray="3" stroke-miterlimit="10"/></g><g><path d=" M 161.790482243984 119.83732514237585 L 166 130 L 170.209517756016 119.83732514237585" fill="none" paint-order="fill stroke markers" stroke="#000000" stroke-dasharray="" stroke-miterlimit="10"/></g></g></svg>