<svg version="1.1" xmlns="http://www.w3.org/2000/svg" xmlns:xlink="http://www.w3.org/1999/xlink" width="441.75048828125" height="249"><defs/><g><g><rect fill="#C0C0C0" stroke="none" x="183" y="247" width="420.75048828125" height="101" transform="matrix(1 0 0 1 -166 -102)" fill-opacity="0.2"/></g><g><rect fill="#ffffff" stroke="none" x="176" y="240" width="420.75048828125" height="101" transform="matrix(1 0 0 1 -166 -102)"/></g><g><path fill="none" stroke="#000000" paint-order="fill stroke markers" d=" M 10 138 L 430.75048828125 138 L 430.75048828125 239 L 10 239 L 10 138 Z Z" stroke-miterlimit="10" stroke-dasharray=""/></g><g><path fill="none" stroke="#000000" paint-order="fill stroke markers" d=" M 10 163 L 430.75048828125 163" stroke-miterlimit="10" stroke-dasharray=""/></g><g><path fill="none" stroke="#000000" paint-order="fill stroke markers" d=" M 10 216 L 430.75048828125 216" stroke-miterlimit="10" stroke-dasharray=""/></g><g><g><path fill="none" stroke="none"/><text fill="#000000" stroke="none" font-family="Arial" font-size="13px" font-style="normal" font-weight="bold" text-decoration="undefined" x="386.875244140625" y="253.5" text-anchor="middle" dominant-baseline="central" transform="matrix(1 0 0 1 -166 -102)">CustomButton</text></g></g><g><g><path fill="none" stroke="none"/><text fill="#000000" stroke="none" font-family="Arial" font-size="13px" font-style="normal" font-weight="normal" text-decoration="undefined" x="181" y="276.5" text-anchor="start" dominant-baseline="central" transform="matrix(1 0 0 1 -166 -102)">-name: string</text></g></g><g><g><path fill="none" stroke="none"/><text fill="#000000" stroke="none" font-family="Arial" font-size="13px" font-style="normal" font-weight="normal" text-decoration="undefined" x="181" y="291.5" text-anchor="start" dominant-baseline="central" transform="matrix(1 0 0 1 -166 -102)">-link: string</text></g></g><g><g><path fill="none" stroke="none"/><text fill="#000000" stroke="none" font-family="Arial" font-size="13px" font-style="normal" font-weight="normal" text-decoration="undefined" x="181" y="306.5" text-anchor="start" dominant-baseline="central" transform="matrix(1 0 0 1 -166 -102)">-variant: string</text></g></g><g><g><path fill="none" stroke="none"/><text fill="#000000" stroke="none" font-family="Arial" font-size="13px" font-style="normal" font-weight="normal" text-decoration="undefined" x="181" y="329.5" text-anchor="start" dominant-baseline="central" transform="matrix(1 0 0 1 -166 -102)">+CustomButton(name: string, link: string, variant: string): JSX.Element</text></g></g><g><rect fill="#C0C0C0" stroke="none" x="279" y="119" width="59.14990234375" height="45" transform="matrix(1 0 0 1 -166 -102)" fill-opacity="0.2"/></g><g><rect fill="#A3E0FF" stroke="none" x="272" y="112" width="59.14990234375" height="45" transform="matrix(1 0 0 1 -166 -102)"/></g><g><path fill="none" stroke="#000000" paint-order="fill stroke markers" d=" M 106 10 L 165.14990234375 10 L 165.14990234375 55 L 106 55 L 106 10 Z Z" stroke-miterlimit="10" stroke-dasharray=""/></g><g><path fill="none" stroke="#000000" paint-order="fill stroke markers" d=" M 106 35 L 165.14990234375 35" stroke-miterlimit="10" stroke-dasharray=""/></g><g><path fill="none" stroke="#000000" paint-order="fill stroke markers" d=" M 106 45 L 165.14990234375 45" stroke-miterlimit="10" stroke-dasharray=""/></g><g><g><path fill="none" stroke="none"/><text fill="#000000" stroke="none" font-family="Arial" font-size="13px" font-style="normal" font-weight="bold" text-decoration="undefined" x="302.074951171875" y="125.5" text-anchor="middle" dominant-baseline="central" transform="matrix(1 0 0 1 -166 -102)">Button</text></g></g><g><path fill="none" stroke="#000000" paint-order="fill stroke markers" d=" M 148 56 L 192 137" stroke-miterlimit="10" stroke-dasharray=""/></g><g><path fill="#000000" stroke="none" paint-order="stroke fill markers" d=" M 183.45003580194208 130.07915379365156 L 192 137 L 190.8480396207092 126.06048505259287 L 181.49871250965265 117.66808439276969"/></g><g><path fill="none" stroke="#000000" paint-order="fill stroke markers" d=" M 183.45003580194208 130.07915379365156 L 192 137 L 190.8480396207092 126.06048505259287 L 181.49871250965265 117.66808439276969 L 183.45003580194208 130.07915379365156" stroke-miterlimit="10" stroke-dasharray=""/></g><g><rect fill="#C0C0C0" stroke="none" x="439" y="119" width="93.75732421875" height="45" transform="matrix(1 0 0 1 -166 -102)" fill-opacity="0.2"/></g><g><rect fill="#A3E0FF" stroke="none" x="432" y="112" width="93.75732421875" height="45" transform="matrix(1 0 0 1 -166 -102)"/></g><g><path fill="none" stroke="#000000" paint-order="fill stroke markers" d=" M 266 10 L 359.75732421875 10 L 359.75732421875 55 L 266 55 L 266 10 Z Z" stroke-miterlimit="10" stroke-dasharray=""/></g><g><path fill="none" stroke="#000000" paint-order="fill stroke markers" d=" M 266 35 L 359.75732421875 35" stroke-miterlimit="10" stroke-dasharray=""/></g><g><path fill="none" stroke="#000000" paint-order="fill stroke markers" d=" M 266 45 L 359.75732421875 45" stroke-miterlimit="10" stroke-dasharray=""/></g><g><g><path fill="none" stroke="none"/><text fill="#000000" stroke="none" font-family="Arial" font-size="13px" font-style="normal" font-weight="bold" text-decoration="undefined" x="479.378662109375" y="125.5" text-anchor="middle" dominant-baseline="central" transform="matrix(1 0 0 1 -166 -102)">RouterButton</text></g></g><g><path fill="none" stroke="#000000" paint-order="fill stroke markers" d=" M 298 56 L 250 137" stroke-miterlimit="10" stroke-dasharray=""/></g><g><path fill="#000000" stroke="none" paint-order="stroke fill markers" d=" M 251.55954344809282 126.11111464687451 L 250 137 L 258.8023684204594 130.4031590749436 L 261.2156525866381 118.07358626004816"/></g><g><path fill="none" stroke="#000000" paint-order="fill stroke markers" d=" M 251.55954344809282 126.11111464687451 L 250 137 L 258.8023684204594 130.4031590749436 L 261.2156525866381 118.07358626004816 L 251.55954344809282 126.11111464687451" stroke-miterlimit="10" stroke-dasharray=""/></g></g></svg>