<svg version="1.1" xmlns="http://www.w3.org/2000/svg" xmlns:xlink="http://www.w3.org/1999/xlink" width="1039.01318359375" height="476"><defs/><g><g><rect fill="#C0C0C0" stroke="none" x="143" y="615" width="970.01318359375" height="176" transform="matrix(1 0 0 1 -78 -318)" fill-opacity="0.2"/></g><g><rect fill="#FFFFFF" stroke="none" x="136" y="608" width="970.01318359375" height="176" transform="matrix(1 0 0 1 -78 -318)"/></g><g><path fill="none" stroke="#000000" paint-order="fill stroke markers" d=" M 58 290 L 1028.01318359375 290 L 1028.01318359375 466 L 58 466 L 58 290 Z Z" stroke-miterlimit="10" stroke-dasharray=""/></g><g><path fill="none" stroke="#000000" paint-order="fill stroke markers" d=" M 58 315 L 1028.01318359375 315" stroke-miterlimit="10" stroke-dasharray=""/></g><g><path fill="none" stroke="#000000" paint-order="fill stroke markers" d=" M 58 413 L 1028.01318359375 413" stroke-miterlimit="10" stroke-dasharray=""/></g><g><g><path fill="none" stroke="none"/><text fill="#000000" stroke="none" font-family="Arial" font-size="13px" font-style="normal" font-weight="bold" text-decoration="undefined" x="621.506591796875" y="621.5" text-anchor="middle" dominant-baseline="central" transform="matrix(1 0 0 1 -78 -318)">CustomNode</text></g></g><g><g><path fill="none" stroke="none"/><text fill="#000000" stroke="none" font-family="Arial" font-size="13px" font-style="normal" font-weight="normal" text-decoration="undefined" x="141" y="644.5" text-anchor="start" dominant-baseline="central" transform="matrix(1 0 0 1 -78 -318)">-nodeTitle: string</text></g></g><g><g><path fill="none" stroke="none"/><text fill="#000000" stroke="none" font-family="Arial" font-size="13px" font-style="normal" font-weight="normal" text-decoration="undefined" x="141" y="659.5" text-anchor="start" dominant-baseline="central" transform="matrix(1 0 0 1 -78 -318)">-dialogTitle: string</text></g></g><g><g><path fill="none" stroke="none"/><text fill="#000000" stroke="none" font-family="Arial" font-size="13px" font-style="normal" font-weight="normal" text-decoration="undefined" x="141" y="674.5" text-anchor="start" dominant-baseline="central" transform="matrix(1 0 0 1 -78 -318)">-dialogContent: string | JSX.Elemnt</text></g></g><g><g><path fill="none" stroke="none"/><text fill="#000000" stroke="none" font-family="Arial" font-size="13px" font-style="normal" font-weight="normal" text-decoration="undefined" x="141" y="689.5" text-anchor="start" dominant-baseline="central" transform="matrix(1 0 0 1 -78 -318)">-type: "in" | "out" | "in-out"</text></g></g><g><g><path fill="none" stroke="none"/><text fill="#000000" stroke="none" font-family="Arial" font-size="13px" font-style="normal" font-weight="normal" text-decoration="undefined" x="141" y="704.5" text-anchor="start" dominant-baseline="central" transform="matrix(1 0 0 1 -78 -318)">-disabled: boolean</text></g></g><g><g><path fill="none" stroke="none"/><text fill="#000000" stroke="none" font-family="Arial" font-size="13px" font-style="normal" font-weight="normal" text-decoration="undefined" x="141" y="719.5" text-anchor="start" dominant-baseline="central" transform="matrix(1 0 0 1 -78 -318)">-draggable: boolean</text></g></g><g><g><path fill="none" stroke="none"/><text fill="#000000" stroke="none" font-family="Arial" font-size="13px" font-style="normal" font-weight="normal" text-decoration="undefined" x="141" y="742.5" text-anchor="start" dominant-baseline="central" transform="matrix(1 0 0 1 -78 -318)">+CustomNode(nodeTitle: string, dialogTitle: string, dialogContent: string | JSX.Element, type: "in" | "out" | "in-out", disabled: boolean, draggable: boolean): JSX.Element</text></g></g><g><g><path fill="none" stroke="none"/><text fill="#000000" stroke="none" font-family="Arial" font-size="13px" font-style="normal" font-weight="normal" text-decoration="undefined" x="141" y="757.5" text-anchor="start" dominant-baseline="central" transform="matrix(1 0 0 1 -78 -318)">-handleClose(): void</text></g></g><g><g><path fill="none" stroke="none"/><text fill="#000000" stroke="none" font-family="Arial" font-size="13px" font-style="normal" font-weight="normal" text-decoration="undefined" x="141" y="772.5" text-anchor="start" dominant-baseline="central" transform="matrix(1 0 0 1 -78 -318)">-handleOpen(): void</text></g></g><g><rect fill="#C0C0C0" stroke="none" x="479" y="335" width="230.0478515625" height="58" transform="matrix(1 0 0 1 -78 -318)" fill-opacity="0.2"/></g><g><rect fill="#A3E0FF" stroke="none" x="472" y="328" width="230.0478515625" height="58" transform="matrix(1 0 0 1 -78 -318)"/></g><g><path fill="none" stroke="#000000" paint-order="fill stroke markers" d=" M 394 10 L 624.0478515625 10 L 624.0478515625 68 L 394 68 L 394 10 Z Z" stroke-miterlimit="10" stroke-dasharray=""/></g><g><path fill="none" stroke="#000000" paint-order="fill stroke markers" d=" M 394 35 L 624.0478515625 35" stroke-miterlimit="10" stroke-dasharray=""/></g><g><path fill="none" stroke="#000000" paint-order="fill stroke markers" d=" M 394 45 L 624.0478515625 45" stroke-miterlimit="10" stroke-dasharray=""/></g><g><g><path fill="none" stroke="none"/><text fill="#000000" stroke="none" font-family="Arial" font-size="13px" font-style="normal" font-weight="bold" text-decoration="undefined" x="587.52392578125" y="341.5" text-anchor="middle" dominant-baseline="central" transform="matrix(1 0 0 1 -78 -318)">Dialog</text></g></g><g><g><path fill="none" stroke="none"/><text fill="#000000" stroke="none" font-family="Arial" font-size="13px" font-style="normal" font-weight="normal" text-decoration="undefined" x="477" y="374.5" text-anchor="start" dominant-baseline="central" transform="matrix(1 0 0 1 -78 -318)">+onClose(handleClose: function): void</text></g></g><g><rect fill="#C0C0C0" stroke="none" x="479" y="439" width="76.21240234375" height="45" transform="matrix(1 0 0 1 -78 -318)" fill-opacity="0.2"/></g><g><rect fill="#A3E0FF" stroke="none" x="472" y="432" width="76.21240234375" height="45" transform="matrix(1 0 0 1 -78 -318)"/></g><g><path fill="none" stroke="#000000" paint-order="fill stroke markers" d=" M 394 114 L 470.21240234375 114 L 470.21240234375 159 L 394 159 L 394 114 Z Z" stroke-miterlimit="10" stroke-dasharray=""/></g><g><path fill="none" stroke="#000000" paint-order="fill stroke markers" d=" M 394 139 L 470.21240234375 139" stroke-miterlimit="10" stroke-dasharray=""/></g><g><path fill="none" stroke="#000000" paint-order="fill stroke markers" d=" M 394 149 L 470.21240234375 149" stroke-miterlimit="10" stroke-dasharray=""/></g><g><g><path fill="none" stroke="none"/><text fill="#000000" stroke="none" font-family="Arial" font-size="13px" font-style="normal" font-weight="bold" text-decoration="undefined" x="510.606201171875" y="445.5" text-anchor="middle" dominant-baseline="central" transform="matrix(1 0 0 1 -78 -318)">DialogTitle</text></g></g><g><rect fill="#C0C0C0" stroke="none" x="335" y="359" width="98.82275390625" height="45" transform="matrix(1 0 0 1 -78 -318)" fill-opacity="0.2"/></g><g><rect fill="#A3E0FF" stroke="none" x="328" y="352" width="98.82275390625" height="45" transform="matrix(1 0 0 1 -78 -318)"/></g><g><path fill="none" stroke="#000000" paint-order="fill stroke markers" d=" M 250 34 L 348.82275390625 34 L 348.82275390625 79 L 250 79 L 250 34 Z Z" stroke-miterlimit="10" stroke-dasharray=""/></g><g><path fill="none" stroke="#000000" paint-order="fill stroke markers" d=" M 250 59 L 348.82275390625 59" stroke-miterlimit="10" stroke-dasharray=""/></g><g><path fill="none" stroke="#000000" paint-order="fill stroke markers" d=" M 250 69 L 348.82275390625 69" stroke-miterlimit="10" stroke-dasharray=""/></g><g><g><path fill="none" stroke="none"/><text fill="#000000" stroke="none" font-family="Arial" font-size="13px" font-style="normal" font-weight="bold" text-decoration="undefined" x="377.911376953125" y="365.5" text-anchor="middle" dominant-baseline="central" transform="matrix(1 0 0 1 -78 -318)">DialogContent</text></g></g><g><path fill="none" stroke="#000000" paint-order="fill stroke markers" d=" M 443 160 L 502 289" stroke-miterlimit="10" stroke-dasharray=""/></g><g><path fill="#000000" stroke="none" paint-order="stroke fill markers" d=" M 493.944947406623 281.5089301352924 L 502 289 L 501.6012039880858 278.00723138873184 L 492.84962020718 268.99323740213947"/></g><g><path fill="none" stroke="#000000" paint-order="fill stroke markers" d=" M 493.944947406623 281.5089301352924 L 502 289 L 501.6012039880858 278.00723138873184 L 492.84962020718 268.99323740213947 L 493.944947406623 281.5089301352924" stroke-miterlimit="10" stroke-dasharray=""/></g><g><path fill="none" stroke="#000000" paint-order="fill stroke markers" d=" M 512 69 L 534 289" stroke-miterlimit="10" stroke-dasharray=""/></g><g><path fill="#000000" stroke="none" paint-order="stroke fill markers" d=" M 528.80014933638 279.30662323666047 L 534 289 L 537.1774027765504 278.46889789264344 L 531.810918181538 267.1091818153802"/></g><g><path fill="none" stroke="#000000" paint-order="fill stroke markers" d=" M 528.80014933638 279.30662323666047 L 534 289 L 537.1774027765504 278.46889789264344 L 531.810918181538 267.1091818153802 L 528.80014933638 279.30662323666047" stroke-miterlimit="10" stroke-dasharray=""/></g><g><path fill="none" stroke="#000000" paint-order="fill stroke markers" d=" M 317 80 L 476 289" stroke-miterlimit="10" stroke-dasharray=""/></g><g><path fill="#000000" stroke="none" paint-order="stroke fill markers" d=" M 466.4965883976903 283.4605805433164 L 476 289 L 473.1970342732576 278.36311214994214 L 462.6796731651789 271.4908911416502"/></g><g><path fill="none" stroke="#000000" paint-order="fill stroke markers" d=" M 466.4965883976903 283.4605805433164 L 476 289 L 473.1970342732576 278.36311214994214 L 462.6796731651789 271.4908911416502 L 466.4965883976903 283.4605805433164" stroke-miterlimit="10" stroke-dasharray=""/></g><g><rect fill="#C0C0C0" stroke="none" x="95" y="527" width="97.39453125" height="45" transform="matrix(1 0 0 1 -78 -318)" fill-opacity="0.2"/></g><g><rect fill="#A3E0FF" stroke="none" x="88" y="520" width="97.39453125" height="45" transform="matrix(1 0 0 1 -78 -318)"/></g><g><path fill="none" stroke="#000000" paint-order="fill stroke markers" d=" M 10 202 L 107.39453125 202 L 107.39453125 247 L 10 247 L 10 202 Z Z" stroke-miterlimit="10" stroke-dasharray=""/></g><g><path fill="none" stroke="#000000" paint-order="fill stroke markers" d=" M 10 227 L 107.39453125 227" stroke-miterlimit="10" stroke-dasharray=""/></g><g><path fill="none" stroke="#000000" paint-order="fill stroke markers" d=" M 10 237 L 107.39453125 237" stroke-miterlimit="10" stroke-dasharray=""/></g><g><g><path fill="none" stroke="none"/><text fill="#000000" stroke="none" font-family="Arial" font-size="13px" font-style="normal" font-weight="bold" text-decoration="undefined" x="137.197265625" y="533.5" text-anchor="middle" dominant-baseline="central" transform="matrix(1 0 0 1 -78 -318)">DialogActions</text></g></g><g><rect fill="#C0C0C0" stroke="none" x="751" y="367" width="220.6533203125" height="58" transform="matrix(1 0 0 1 -78 -318)" fill-opacity="0.2"/></g><g><rect fill="#A3E0FF" stroke="none" x="744" y="360" width="220.6533203125" height="58" transform="matrix(1 0 0 1 -78 -318)"/></g><g><path fill="none" stroke="#000000" paint-order="fill stroke markers" d=" M 666 42 L 886.6533203125 42 L 886.6533203125 100 L 666 100 L 666 42 Z Z" stroke-miterlimit="10" stroke-dasharray=""/></g><g><path fill="none" stroke="#000000" paint-order="fill stroke markers" d=" M 666 67 L 886.6533203125 67" stroke-miterlimit="10" stroke-dasharray=""/></g><g><path fill="none" stroke="#000000" paint-order="fill stroke markers" d=" M 666 77 L 886.6533203125 77" stroke-miterlimit="10" stroke-dasharray=""/></g><g><g><path fill="none" stroke="none"/><text fill="#000000" stroke="none" font-family="Arial" font-size="13px" font-style="normal" font-weight="bold" text-decoration="undefined" x="854.82666015625" y="373.5" text-anchor="middle" dominant-baseline="central" transform="matrix(1 0 0 1 -78 -318)">Button</text></g></g><g><g><path fill="none" stroke="none"/><text fill="#000000" stroke="none" font-family="Arial" font-size="13px" font-style="normal" font-weight="normal" text-decoration="undefined" x="749" y="406.5" text-anchor="start" dominant-baseline="central" transform="matrix(1 0 0 1 -78 -318)">+onClick(handeOpen: function): void</text></g></g><g><path fill="none" stroke="#000000" paint-order="fill stroke markers" d=" M 108 240 L 263 289" stroke-miterlimit="10" stroke-dasharray=""/></g><g><path fill="#000000" stroke="none" paint-order="stroke fill markers" d=" M 252.04113762574525 289.95043961520105 L 263 289 L 254.57885180405736 281.92297639809135 L 242.0232277172342 282.36863327835147"/></g><g><path fill="none" stroke="#000000" paint-order="fill stroke markers" d=" M 252.04113762574525 289.95043961520105 L 263 289 L 254.57885180405736 281.92297639809135 L 242.0232277172342 282.36863327835147 L 252.04113762574525 289.95043961520105" stroke-miterlimit="10" stroke-dasharray=""/></g><g><rect fill="#C0C0C0" stroke="none" x="887" y="495" width="136" height="45" transform="matrix(1 0 0 1 -78 -318)" fill-opacity="0.2"/></g><g><rect fill="#A3E0FF" stroke="none" x="880" y="488" width="136" height="45" transform="matrix(1 0 0 1 -78 -318)"/></g><g><path fill="none" stroke="#000000" paint-order="fill stroke markers" d=" M 802 170 L 938 170 L 938 215 L 802 215 L 802 170 Z Z" stroke-miterlimit="10" stroke-dasharray=""/></g><g><path fill="none" stroke="#000000" paint-order="fill stroke markers" d=" M 802 195 L 938 195" stroke-miterlimit="10" stroke-dasharray=""/></g><g><path fill="none" stroke="#000000" paint-order="fill stroke markers" d=" M 802 205 L 938 205" stroke-miterlimit="10" stroke-dasharray=""/></g><g><g><path fill="none" stroke="none"/><text fill="#000000" stroke="none" font-family="Arial" font-size="13px" font-style="normal" font-weight="bold" text-decoration="undefined" x="948.5" y="501.5" text-anchor="middle" dominant-baseline="central" transform="matrix(1 0 0 1 -78 -318)">InfoOutlinedIcon</text></g></g><g><path fill="none" stroke="#000000" paint-order="fill stroke markers" d=" M 753 101 L 611 289" stroke-miterlimit="10" stroke-dasharray=""/></g><g><path fill="#000000" stroke="none" paint-order="stroke fill markers" d=" M 613.7661576170302 278.35348075483137 L 611 289 L 620.4841947631247 283.42774285454107 L 624.259685867113 271.4449229364983"/></g><g><path fill="none" stroke="#000000" paint-order="fill stroke markers" d=" M 613.7661576170302 278.35348075483137 L 611 289 L 620.4841947631247 283.42774285454107 L 624.259685867113 271.4449229364983 L 613.7661576170302 278.35348075483137" stroke-miterlimit="10" stroke-dasharray=""/></g><g><path fill="none" stroke="#000000" paint-order="fill stroke markers" d=" M 828 216 L 699 289" stroke-miterlimit="10" stroke-dasharray=""/></g><g><path fill="#000000" stroke="none" paint-order="stroke fill markers" d=" M 705.7714968601775 280.3312728574141 L 699 289 L 709.9178870953933 287.6584556018365 L 718.1468512214873 278.1649601614839"/></g><g><path fill="none" stroke="#000000" paint-order="fill stroke markers" d=" M 705.7714968601775 280.3312728574141 L 699 289 L 709.9178870953933 287.6584556018365 L 718.1468512214873 278.1649601614839 L 705.7714968601775 280.3312728574141" stroke-miterlimit="10" stroke-dasharray=""/></g><g><rect fill="#C0C0C0" stroke="none" x="143" y="447" width="83.4296875" height="45" transform="matrix(1 0 0 1 -78 -318)" fill-opacity="0.2"/></g><g><rect fill="#A3E0FF" stroke="none" x="136" y="440" width="83.4296875" height="45" transform="matrix(1 0 0 1 -78 -318)"/></g><g><path fill="none" stroke="#000000" paint-order="fill stroke markers" d=" M 58 122 L 141.4296875 122 L 141.4296875 167 L 58 167 L 58 122 Z Z" stroke-miterlimit="10" stroke-dasharray=""/></g><g><path fill="none" stroke="#000000" paint-order="fill stroke markers" d=" M 58 147 L 141.4296875 147" stroke-miterlimit="10" stroke-dasharray=""/></g><g><path fill="none" stroke="#000000" paint-order="fill stroke markers" d=" M 58 157 L 141.4296875 157" stroke-miterlimit="10" stroke-dasharray=""/></g><g><g><path fill="none" stroke="none"/><text fill="#000000" stroke="none" font-family="Arial" font-size="13px" font-style="normal" font-weight="bold" text-decoration="undefined" x="178.21484375" y="453.5" text-anchor="middle" dominant-baseline="central" transform="matrix(1 0 0 1 -78 -318)">Typography</text></g></g><g><rect fill="#C0C0C0" stroke="none" x="231" y="367" width="59.14990234375" height="45" transform="matrix(1 0 0 1 -78 -318)" fill-opacity="0.2"/></g><g><rect fill="#A3E0FF" stroke="none" x="224" y="360" width="59.14990234375" height="45" transform="matrix(1 0 0 1 -78 -318)"/></g><g><path fill="none" stroke="#000000" paint-order="fill stroke markers" d=" M 146 42 L 205.14990234375 42 L 205.14990234375 87 L 146 87 L 146 42 Z Z" stroke-miterlimit="10" stroke-dasharray=""/></g><g><path fill="none" stroke="#000000" paint-order="fill stroke markers" d=" M 146 67 L 205.14990234375 67" stroke-miterlimit="10" stroke-dasharray=""/></g><g><path fill="none" stroke="#000000" paint-order="fill stroke markers" d=" M 146 77 L 205.14990234375 77" stroke-miterlimit="10" stroke-dasharray=""/></g><g><g><path fill="none" stroke="none"/><text fill="#000000" stroke="none" font-family="Arial" font-size="13px" font-style="normal" font-weight="bold" text-decoration="undefined" x="254.074951171875" y="373.5" text-anchor="middle" dominant-baseline="central" transform="matrix(1 0 0 1 -78 -318)">Divider</text></g></g><g><path fill="none" stroke="#000000" paint-order="fill stroke markers" d=" M 142 167 L 374 289" stroke-miterlimit="10" stroke-dasharray=""/></g><g><path fill="#000000" stroke="none" paint-order="stroke fill markers" d=" M 363.04593838073106 287.9957420444629 L 374 289 L 366.96442635790044 280.5441911370589 L 354.52815910698973 278.7604974614343"/></g><g><path fill="none" stroke="#000000" paint-order="fill stroke markers" d=" M 363.04593838073106 287.9957420444629 L 374 289 L 366.96442635790044 280.5441911370589 L 354.52815910698973 278.7604974614343 L 363.04593838073106 287.9957420444629" stroke-miterlimit="10" stroke-dasharray=""/></g><g><path fill="none" stroke="#000000" paint-order="fill stroke markers" d=" M 203 88 L 439 289" stroke-miterlimit="10" stroke-dasharray=""/></g><g><path fill="#000000" stroke="none" paint-order="stroke fill markers" d=" M 428.533693615575 285.6152650521283 L 439 289 L 433.99257281575626 279.20583474743785 L 422.25135147587036 274.7352612146184"/></g><g><path fill="none" stroke="#000000" paint-order="fill stroke markers" d=" M 428.533693615575 285.6152650521283 L 439 289 L 433.99257281575626 279.20583474743785 L 422.25135147587036 274.7352612146184 L 428.533693615575 285.6152650521283" stroke-miterlimit="10" stroke-dasharray=""/></g></g></svg>