<svg version="1.1" xmlns="http://www.w3.org/2000/svg" xmlns:xlink="http://www.w3.org/1999/xlink" width="392.4296875" height="244"><defs/><g><g><rect fill="#C0C0C0" stroke="none" x="183" y="351" width="314.52880859375" height="88" transform="matrix(1 0 0 1 -150 -198)" fill-opacity="0.2"/></g><g><rect fill="#ffffff" stroke="none" x="176" y="344" width="314.52880859375" height="88" transform="matrix(1 0 0 1 -150 -198)"/></g><g><path fill="none" stroke="#000000" paint-order="fill stroke markers" d=" M 26 146 L 340.52880859375 146 L 340.52880859375 234 L 26 234 L 26 146 Z Z" stroke-miterlimit="10" stroke-dasharray=""/></g><g><path fill="none" stroke="#000000" paint-order="fill stroke markers" d=" M 26 171 L 340.52880859375 171" stroke-miterlimit="10" stroke-dasharray=""/></g><g><path fill="none" stroke="#000000" paint-order="fill stroke markers" d=" M 26 209 L 340.52880859375 209" stroke-miterlimit="10" stroke-dasharray=""/></g><g><g><path fill="none" stroke="none"/><text fill="#000000" stroke="none" font-family="Arial" font-size="13px" font-style="normal" font-weight="bold" text-decoration="undefined" x="333.764404296875" y="357.5" text-anchor="middle" dominant-baseline="central" transform="matrix(1 0 0 1 -150 -198)">CustomLink</text></g></g><g><g><path fill="none" stroke="none"/><text fill="#000000" stroke="none" font-family="Arial" font-size="13px" font-style="normal" font-weight="normal" text-decoration="undefined" x="181" y="380.5" text-anchor="start" dominant-baseline="central" transform="matrix(1 0 0 1 -150 -198)">-name: string</text></g></g><g><g><path fill="none" stroke="none"/><text fill="#000000" stroke="none" font-family="Arial" font-size="13px" font-style="normal" font-weight="normal" text-decoration="undefined" x="181" y="395.5" text-anchor="start" dominant-baseline="central" transform="matrix(1 0 0 1 -150 -198)">-link: string</text></g></g><g><g><path fill="none" stroke="none"/><text fill="#000000" stroke="none" font-family="Arial" font-size="13px" font-style="normal" font-weight="normal" text-decoration="undefined" x="181" y="418.5" text-anchor="start" dominant-baseline="central" transform="matrix(1 0 0 1 -150 -198)">+CustomLink(name: string, link: string): JSX.Element</text></g></g><g><rect fill="#C0C0C0" stroke="none" x="311" y="215" width="59.14990234375" height="45" transform="matrix(1 0 0 1 -150 -198)" fill-opacity="0.2"/></g><g><rect fill="#A3E0FF" stroke="none" x="304" y="208" width="59.14990234375" height="45" transform="matrix(1 0 0 1 -150 -198)"/></g><g><path fill="none" stroke="#000000" paint-order="fill stroke markers" d=" M 154 10 L 213.14990234375 10 L 213.14990234375 55 L 154 55 L 154 10 Z Z" stroke-miterlimit="10" stroke-dasharray=""/></g><g><path fill="none" stroke="#000000" paint-order="fill stroke markers" d=" M 154 35 L 213.14990234375 35" stroke-miterlimit="10" stroke-dasharray=""/></g><g><path fill="none" stroke="#000000" paint-order="fill stroke markers" d=" M 154 45 L 213.14990234375 45" stroke-miterlimit="10" stroke-dasharray=""/></g><g><g><path fill="none" stroke="none"/><text fill="#000000" stroke="none" font-family="Arial" font-size="13px" font-style="normal" font-weight="bold" text-decoration="undefined" x="334.074951171875" y="221.5" text-anchor="middle" dominant-baseline="central" transform="matrix(1 0 0 1 -150 -198)">Link</text></g></g><g><rect fill="#C0C0C0" stroke="none" x="455" y="215" width="83.4296875" height="45" transform="matrix(1 0 0 1 -150 -198)" fill-opacity="0.2"/></g><g><rect fill="#A3E0FF" stroke="none" x="448" y="208" width="83.4296875" height="45" transform="matrix(1 0 0 1 -150 -198)"/></g><g><path fill="none" stroke="#000000" paint-order="fill stroke markers" d=" M 298 10 L 381.4296875 10 L 381.4296875 55 L 298 55 L 298 10 Z Z" stroke-miterlimit="10" stroke-dasharray=""/></g><g><path fill="none" stroke="#000000" paint-order="fill stroke markers" d=" M 298 35 L 381.4296875 35" stroke-miterlimit="10" stroke-dasharray=""/></g><g><path fill="none" stroke="#000000" paint-order="fill stroke markers" d=" M 298 45 L 381.4296875 45" stroke-miterlimit="10" stroke-dasharray=""/></g><g><g><path fill="none" stroke="none"/><text fill="#000000" stroke="none" font-family="Arial" font-size="13px" font-style="normal" font-weight="bold" text-decoration="undefined" x="490.21484375" y="221.5" text-anchor="middle" dominant-baseline="central" transform="matrix(1 0 0 1 -150 -198)">Typography</text></g></g><g><path fill="none" stroke="#000000" paint-order="fill stroke markers" d=" M 183 56 L 183 145" stroke-miterlimit="10" stroke-dasharray=""/></g><g><path fill="#000000" stroke="none" paint-order="stroke fill markers" d=" M 178.790482243984 134.83732514237585 L 183 145 L 187.209517756016 134.83732514237585 L 183 123"/></g><g><path fill="none" stroke="#000000" paint-order="fill stroke markers" d=" M 178.790482243984 134.83732514237585 L 183 145 L 187.209517756016 134.83732514237585 L 183 123 L 178.790482243984 134.83732514237585" stroke-miterlimit="10" stroke-dasharray=""/></g><g><path fill="none" stroke="#000000" paint-order="fill stroke markers" d=" M 315 56 L 227 145" stroke-miterlimit="10" stroke-dasharray=""/></g><g><path fill="#000000" stroke="none" paint-order="stroke fill markers" d=" M 231.15203524936533 134.8137051246281 L 227 145 L 237.13873046209306 140.73313409901056 L 242.46821334228855 129.35601150609455"/></g><g><path fill="none" stroke="#000000" paint-order="fill stroke markers" d=" M 231.15203524936533 134.8137051246281 L 227 145 L 237.13873046209306 140.73313409901056 L 242.46821334228855 129.35601150609455 L 231.15203524936533 134.8137051246281" stroke-miterlimit="10" stroke-dasharray=""/></g><g><rect fill="#C0C0C0" stroke="none" x="167" y="215" width="78.61181640625" height="45" transform="matrix(1 0 0 1 -150 -198)" fill-opacity="0.2"/></g><g><rect fill="#A3E0FF" stroke="none" x="160" y="208" width="78.61181640625" height="45" transform="matrix(1 0 0 1 -150 -198)"/></g><g><path fill="none" stroke="#000000" paint-order="fill stroke markers" d=" M 10 10 L 88.61181640625 10 L 88.61181640625 55 L 10 55 L 10 10 Z Z" stroke-miterlimit="10" stroke-dasharray=""/></g><g><path fill="none" stroke="#000000" paint-order="fill stroke markers" d=" M 10 35 L 88.61181640625 35" stroke-miterlimit="10" stroke-dasharray=""/></g><g><path fill="none" stroke="#000000" paint-order="fill stroke markers" d=" M 10 45 L 88.61181640625 45" stroke-miterlimit="10" stroke-dasharray=""/></g><g><g><path fill="none" stroke="none"/><text fill="#000000" stroke="none" font-family="Arial" font-size="13px" font-style="normal" font-weight="bold" text-decoration="undefined" x="199.805908203125" y="221.5" text-anchor="middle" dominant-baseline="central" transform="matrix(1 0 0 1 -150 -198)">RouterLink</text></g></g><g><path fill="none" stroke="#000000" paint-order="fill stroke markers" d=" M 69 56 L 145 145" stroke-miterlimit="10" stroke-dasharray=""/></g><g><path fill="#000000" stroke="none" paint-order="stroke fill markers" d=" M 135.19935595170392 140.0052651483188 L 145 145 L 141.60170901730686 134.5380872496017 L 130.71357567029122 128.269845192841"/></g><g><path fill="none" stroke="#000000" paint-order="fill stroke markers" d=" M 135.19935595170392 140.0052651483188 L 145 145 L 141.60170901730686 134.5380872496017 L 130.71357567029122 128.269845192841 L 135.19935595170392 140.0052651483188" stroke-miterlimit="10" stroke-dasharray=""/></g></g></svg>