<svg version="1.1" xmlns="http://www.w3.org/2000/svg" xmlns:xlink="http://www.w3.org/1999/xlink" width="510.39453125" height="374"><defs/><g><g><rect fill="#C0C0C0" stroke="none" x="623" y="359" width="363.7294921875" height="86" transform="matrix(1 0 0 1 -574 -214)" fill-opacity="0.2"/></g><g><rect fill="#FFFFFF" stroke="none" x="616" y="352" width="363.7294921875" height="86" transform="matrix(1 0 0 1 -574 -214)"/></g><g><path fill="none" stroke="#000000" paint-order="fill stroke markers" d=" M 42 138 L 405.7294921875 138 L 405.7294921875 224 L 42 224 L 42 138 Z Z" stroke-miterlimit="10" stroke-dasharray=""/></g><g><path fill="none" stroke="#000000" paint-order="fill stroke markers" d=" M 42 163 L 405.7294921875 163" stroke-miterlimit="10" stroke-dasharray=""/></g><g><path fill="none" stroke="#000000" paint-order="fill stroke markers" d=" M 42 186 L 405.7294921875 186" stroke-miterlimit="10" stroke-dasharray=""/></g><g><g><path fill="none" stroke="none"/><text fill="#000000" stroke="none" font-family="Arial" font-size="13px" font-style="normal" font-weight="bold" text-decoration="undefined" x="798.36474609375" y="365.5" text-anchor="middle" dominant-baseline="central" transform="matrix(1 0 0 1 -574 -214)">LogoutMenuItem</text></g></g><g><g><path fill="none" stroke="none"/><text fill="#000000" stroke="none" font-family="Arial" font-size="13px" font-style="normal" font-weight="normal" text-decoration="undefined" x="621" y="388.5" text-anchor="start" dominant-baseline="central" transform="matrix(1 0 0 1 -574 -214)">-handleCloseMenu: function</text></g></g><g><g><path fill="none" stroke="none"/><text fill="#000000" stroke="none" font-family="Arial" font-size="13px" font-style="normal" font-weight="normal" text-decoration="undefined" x="621" y="411.5" text-anchor="start" dominant-baseline="central" transform="matrix(1 0 0 1 -574 -214)">+LogoutMenuItem(handleCloseMenu: function): JSX.Element</text></g></g><g><g><path fill="none" stroke="none"/><text fill="#000000" stroke="none" font-family="Arial" font-size="13px" font-style="normal" font-weight="normal" text-decoration="undefined" x="621" y="426.5" text-anchor="start" dominant-baseline="central" transform="matrix(1 0 0 1 -574 -214)">-handleLogout(): void</text></g></g><g><rect fill="#C0C0C0" stroke="none" x="615" y="231" width="112" height="45" transform="matrix(1 0 0 1 -574 -214)" fill-opacity="0.2"/></g><g><rect fill="#A3E0FF" stroke="none" x="608" y="224" width="112" height="45" transform="matrix(1 0 0 1 -574 -214)"/></g><g><path fill="none" stroke="#000000" paint-order="fill stroke markers" d=" M 34 10 L 146 10 L 146 55 L 34 55 L 34 10 Z Z" stroke-miterlimit="10" stroke-dasharray=""/></g><g><path fill="none" stroke="#000000" paint-order="fill stroke markers" d=" M 34 35 L 146 35" stroke-miterlimit="10" stroke-dasharray=""/></g><g><path fill="none" stroke="#000000" paint-order="fill stroke markers" d=" M 34 45 L 146 45" stroke-miterlimit="10" stroke-dasharray=""/></g><g><g><path fill="none" stroke="none"/><text fill="#000000" stroke="none" font-family="Arial" font-size="13px" font-style="normal" font-weight="bold" text-decoration="undefined" x="664.5" y="237.5" text-anchor="middle" dominant-baseline="central" transform="matrix(1 0 0 1 -574 -214)">MenuItem</text></g></g><g><path fill="none" stroke="#000000" paint-order="fill stroke markers" d=" M 111 56 L 184 137" stroke-miterlimit="10" stroke-dasharray=""/></g><g><path fill="#000000" stroke="none" paint-order="stroke fill markers" d=" M 174.06939173197168 132.2689304140642 L 184 137 L 180.32337093885064 126.63262816588929 L 169.2716324473705 120.65756477037002"/></g><g><path fill="none" stroke="#000000" paint-order="fill stroke markers" d=" M 174.06939173197168 132.2689304140642 L 184 137 L 180.32337093885064 126.63262816588929 L 169.2716324473705 120.65756477037002 L 174.06939173197168 132.2689304140642" stroke-miterlimit="10" stroke-dasharray=""/></g><g><rect fill="#C0C0C0" stroke="none" x="791" y="231" width="59.14990234375" height="45" transform="matrix(1 0 0 1 -574 -214)" fill-opacity="0.2"/></g><g><rect fill="#A3E0FF" stroke="none" x="784" y="224" width="59.14990234375" height="45" transform="matrix(1 0 0 1 -574 -214)"/></g><g><path fill="none" stroke="#000000" paint-order="fill stroke markers" d=" M 210 10 L 269.14990234375 10 L 269.14990234375 55 L 210 55 L 210 10 Z Z" stroke-miterlimit="10" stroke-dasharray=""/></g><g><path fill="none" stroke="#000000" paint-order="fill stroke markers" d=" M 210 35 L 269.14990234375 35" stroke-miterlimit="10" stroke-dasharray=""/></g><g><path fill="none" stroke="#000000" paint-order="fill stroke markers" d=" M 210 45 L 269.14990234375 45" stroke-miterlimit="10" stroke-dasharray=""/></g><g><g><path fill="none" stroke="none"/><text fill="#000000" stroke="none" font-family="Arial" font-size="13px" font-style="normal" font-weight="bold" text-decoration="undefined" x="814.074951171875" y="237.5" text-anchor="middle" dominant-baseline="central" transform="matrix(1 0 0 1 -574 -214)">Dialog</text></g></g><g><rect fill="#C0C0C0" stroke="none" x="703" y="527" width="228.23876953125" height="58" transform="matrix(1 0 0 1 -574 -214)" fill-opacity="0.2"/></g><g><rect fill="#A3E0FF" stroke="none" x="696" y="520" width="228.23876953125" height="58" transform="matrix(1 0 0 1 -574 -214)"/></g><g><path fill="none" stroke="#000000" paint-order="fill stroke markers" d=" M 122 306 L 350.23876953125 306 L 350.23876953125 364 L 122 364 L 122 306 Z Z" stroke-miterlimit="10" stroke-dasharray=""/></g><g><path fill="none" stroke="#000000" paint-order="fill stroke markers" d=" M 122 331 L 350.23876953125 331" stroke-miterlimit="10" stroke-dasharray=""/></g><g><path fill="none" stroke="#000000" paint-order="fill stroke markers" d=" M 122 341 L 350.23876953125 341" stroke-miterlimit="10" stroke-dasharray=""/></g><g><g><path fill="none" stroke="none"/><text fill="#000000" stroke="none" font-family="Arial" font-size="13px" font-style="normal" font-weight="bold" text-decoration="undefined" x="810.619384765625" y="533.5" text-anchor="middle" dominant-baseline="central" transform="matrix(1 0 0 1 -574 -214)">Button</text></g></g><g><g><path fill="none" stroke="none"/><text fill="#000000" stroke="none" font-family="Arial" font-size="13px" font-style="normal" font-weight="normal" text-decoration="undefined" x="701" y="566.5" text-anchor="start" dominant-baseline="central" transform="matrix(1 0 0 1 -574 -214)">-onClick(handleLogout: function): void</text></g></g><g><rect fill="#C0C0C0" stroke="none" x="983" y="535" width="97.39453125" height="45" transform="matrix(1 0 0 1 -574 -214)" fill-opacity="0.2"/></g><g><rect fill="#A3E0FF" stroke="none" x="976" y="528" width="97.39453125" height="45" transform="matrix(1 0 0 1 -574 -214)"/></g><g><path fill="none" stroke="#000000" paint-order="fill stroke markers" d=" M 402 314 L 499.39453125 314 L 499.39453125 359 L 402 359 L 402 314 Z Z" stroke-miterlimit="10" stroke-dasharray=""/></g><g><path fill="none" stroke="#000000" paint-order="fill stroke markers" d=" M 402 339 L 499.39453125 339" stroke-miterlimit="10" stroke-dasharray=""/></g><g><path fill="none" stroke="#000000" paint-order="fill stroke markers" d=" M 402 349 L 499.39453125 349" stroke-miterlimit="10" stroke-dasharray=""/></g><g><g><path fill="none" stroke="none"/><text fill="#000000" stroke="none" font-family="Arial" font-size="13px" font-style="normal" font-weight="bold" text-decoration="undefined" x="1025.197265625" y="541.5" text-anchor="middle" dominant-baseline="central" transform="matrix(1 0 0 1 -574 -214)">DialogActions</text></g></g><g><rect fill="#C0C0C0" stroke="none" x="911" y="231" width="76.21240234375" height="45" transform="matrix(1 0 0 1 -574 -214)" fill-opacity="0.2"/></g><g><rect fill="#A3E0FF" stroke="none" x="904" y="224" width="76.21240234375" height="45" transform="matrix(1 0 0 1 -574 -214)"/></g><g><path fill="none" stroke="#000000" paint-order="fill stroke markers" d=" M 330 10 L 406.21240234375 10 L 406.21240234375 55 L 330 55 L 330 10 Z Z" stroke-miterlimit="10" stroke-dasharray=""/></g><g><path fill="none" stroke="#000000" paint-order="fill stroke markers" d=" M 330 35 L 406.21240234375 35" stroke-miterlimit="10" stroke-dasharray=""/></g><g><path fill="none" stroke="#000000" paint-order="fill stroke markers" d=" M 330 45 L 406.21240234375 45" stroke-miterlimit="10" stroke-dasharray=""/></g><g><g><path fill="none" stroke="none"/><text fill="#000000" stroke="none" font-family="Arial" font-size="13px" font-style="normal" font-weight="bold" text-decoration="undefined" x="942.606201171875" y="237.5" text-anchor="middle" dominant-baseline="central" transform="matrix(1 0 0 1 -574 -214)">DialogTitle</text></g></g><g><path fill="none" stroke="#000000" paint-order="fill stroke markers" d=" M 236 56 L 228 137" stroke-miterlimit="10" stroke-dasharray=""/></g><g><path fill="#000000" stroke="none" paint-order="stroke fill markers" d=" M 224.8097253994123 126.47279011452486 L 228 137 L 233.18799669307077 127.30027369908373 L 230.16231881125555 115.10652203603797"/></g><g><path fill="none" stroke="#000000" paint-order="fill stroke markers" d=" M 224.8097253994123 126.47279011452486 L 228 137 L 233.18799669307077 127.30027369908373 L 230.16231881125555 115.10652203603797 L 224.8097253994123 126.47279011452486" stroke-miterlimit="10" stroke-dasharray=""/></g><g><path fill="none" stroke="#000000" paint-order="fill stroke markers" d=" M 233 305 L 227 225" stroke-miterlimit="10" stroke-dasharray=""/></g><g><path fill="#000000" stroke="none" paint-order="stroke fill markers" d=" M 231.95779412786067 234.81938273954887 L 227 225 L 223.56233772533596 235.44904196973823 L 228.64537886131598 246.93838481754602"/></g><g><path fill="none" stroke="#000000" paint-order="fill stroke markers" d=" M 231.95779412786067 234.81938273954887 L 227 225 L 223.56233772533596 235.44904196973823 L 228.64537886131598 246.93838481754602 L 231.95779412786067 234.81938273954887" stroke-miterlimit="10" stroke-dasharray=""/></g><g><path fill="none" stroke="#000000" paint-order="fill stroke markers" d=" M 416 313 L 287 225" stroke-miterlimit="10" stroke-dasharray=""/></g><g><path fill="#000000" stroke="none" paint-order="stroke fill markers" d=" M 297.7675154962685 227.24957996915361 L 287 225 L 293.0230899729328 234.20447647495268 L 305.1740203980503 237.3977813568095"/></g><g><path fill="none" stroke="#000000" paint-order="fill stroke markers" d=" M 297.7675154962685 227.24957996915361 L 287 225 L 293.0230899729328 234.20447647495268 L 305.1740203980503 237.3977813568095 L 297.7675154962685 227.24957996915361" stroke-miterlimit="10" stroke-dasharray=""/></g><g><path fill="none" stroke="#000000" paint-order="fill stroke markers" d=" M 345 56 L 266 137" stroke-miterlimit="10" stroke-dasharray=""/></g><g><path fill="#000000" stroke="none" paint-order="stroke fill markers" d=" M 270.08216541357956 126.78550414674447 L 266 137 L 276.1092661301061 132.6637875616284 L 281.3606948138689 121.25042683641294"/></g><g><path fill="none" stroke="#000000" paint-order="fill stroke markers" d=" M 270.08216541357956 126.78550414674447 L 266 137 L 276.1092661301061 132.6637875616284 L 281.3606948138689 121.25042683641294 L 270.08216541357956 126.78550414674447" stroke-miterlimit="10" stroke-dasharray=""/></g><g><rect fill="#C0C0C0" stroke="none" x="591" y="535" width="59.14990234375" height="45" transform="matrix(1 0 0 1 -574 -214)" fill-opacity="0.2"/></g><g><rect fill="#A3E0FF" stroke="none" x="584" y="528" width="59.14990234375" height="45" transform="matrix(1 0 0 1 -574 -214)"/></g><g><path fill="none" stroke="#000000" paint-order="fill stroke markers" d=" M 10 314 L 69.14990234375 314 L 69.14990234375 359 L 10 359 L 10 314 Z Z" stroke-miterlimit="10" stroke-dasharray=""/></g><g><path fill="none" stroke="#000000" paint-order="fill stroke markers" d=" M 10 339 L 69.14990234375 339" stroke-miterlimit="10" stroke-dasharray=""/></g><g><path fill="none" stroke="#000000" paint-order="fill stroke markers" d=" M 10 349 L 69.14990234375 349" stroke-miterlimit="10" stroke-dasharray=""/></g><g><g><path fill="none" stroke="none"/><text fill="#000000" stroke="none" font-family="Arial" font-size="13px" font-style="normal" font-weight="bold" text-decoration="undefined" x="614.074951171875" y="541.5" text-anchor="middle" dominant-baseline="central" transform="matrix(1 0 0 1 -574 -214)">Button</text></g></g><g><path fill="none" stroke="#000000" paint-order="fill stroke markers" d=" M 66 313 L 171 225" stroke-miterlimit="10" stroke-dasharray=""/></g><g><path fill="#000000" stroke="none" paint-order="stroke fill markers" d=" M 165.91501242685308 234.75412227629636 L 171 225 L 160.50716479868652 228.30157681087042 L 154.13868613138686 239.1313868613139"/></g><g><path fill="none" stroke="#000000" paint-order="fill stroke markers" d=" M 165.91501242685308 234.75412227629636 L 171 225 L 160.50716479868652 228.30157681087042 L 154.13868613138686 239.1313868613139 L 165.91501242685308 234.75412227629636" stroke-miterlimit="10" stroke-dasharray=""/></g></g></svg>