<svg version="1.1" xmlns="http://www.w3.org/2000/svg" xmlns:xlink="http://www.w3.org/1999/xlink" width="417.89599609375" height="185"><defs/><g><g><rect fill="#C0C0C0" stroke="none" x="767" y="415" width="396.89599609375" height="86" transform="matrix(1 0 0 1 -750 -398)" fill-opacity="0.2"/></g><g><rect fill="#FFFFFF" stroke="none" x="760" y="408" width="396.89599609375" height="86" transform="matrix(1 0 0 1 -750 -398)"/></g><g><path fill="none" stroke="#000000" paint-order="fill stroke markers" d=" M 10 10 L 406.89599609375 10 L 406.89599609375 96 L 10 96 L 10 10 Z Z" stroke-miterlimit="10" stroke-dasharray=""/></g><g><path fill="none" stroke="#000000" paint-order="fill stroke markers" d=" M 10 35 L 406.89599609375 35" stroke-miterlimit="10" stroke-dasharray=""/></g><g><path fill="none" stroke="#000000" paint-order="fill stroke markers" d=" M 10 73 L 406.89599609375 73" stroke-miterlimit="10" stroke-dasharray=""/></g><g><g><path fill="none" stroke="none"/><text fill="#000000" stroke="none" font-family="Arial" font-size="13px" font-style="normal" font-weight="bold" text-decoration="undefined" x="958.947998046875" y="421.5" text-anchor="middle" dominant-baseline="central" transform="matrix(1 0 0 1 -750 -398)">PersonCard</text></g></g><g><g><path fill="none" stroke="none"/><text fill="#000000" stroke="none" font-family="Arial" font-size="13px" font-style="normal" font-weight="normal" text-decoration="undefined" x="765" y="444.5" text-anchor="start" dominant-baseline="central" transform="matrix(1 0 0 1 -750 -398)">-name: string</text></g></g><g><g><path fill="none" stroke="none"/><text fill="#000000" stroke="none" font-family="Arial" font-size="13px" font-style="normal" font-weight="normal" text-decoration="undefined" x="765" y="459.5" text-anchor="start" dominant-baseline="central" transform="matrix(1 0 0 1 -750 -398)">-GitHubUsername: string</text></g></g><g><g><path fill="none" stroke="none"/><text fill="#000000" stroke="none" font-family="Arial" font-size="13px" font-style="normal" font-weight="normal" text-decoration="undefined" x="765" y="482.5" text-anchor="start" dominant-baseline="central" transform="matrix(1 0 0 1 -750 -398)">+PersonCard(name: string, GitHubUsername: string): JSX.element</text></g></g><g><rect fill="#C0C0C0" stroke="none" x="887" y="535" width="51.919921875" height="45" transform="matrix(1 0 0 1 -750 -398)" fill-opacity="0.2"/></g><g><rect fill="#A3E0FF" stroke="none" x="880" y="528" width="51.919921875" height="45" transform="matrix(1 0 0 1 -750 -398)"/></g><g><path fill="none" stroke="#000000" paint-order="fill stroke markers" d=" M 130 130 L 181.919921875 130 L 181.919921875 175 L 130 175 L 130 130 Z Z" stroke-miterlimit="10" stroke-dasharray=""/></g><g><path fill="none" stroke="#000000" paint-order="fill stroke markers" d=" M 130 155 L 181.919921875 155" stroke-miterlimit="10" stroke-dasharray=""/></g><g><path fill="none" stroke="#000000" paint-order="fill stroke markers" d=" M 130 165 L 181.919921875 165" stroke-miterlimit="10" stroke-dasharray=""/></g><g><g><path fill="none" stroke="none"/><text fill="#000000" stroke="none" font-family="Arial" font-size="13px" font-style="normal" font-weight="bold" text-decoration="undefined" x="906.4599609375" y="541.5" text-anchor="middle" dominant-baseline="central" transform="matrix(1 0 0 1 -750 -398)">Link</text></g></g><g><rect fill="#C0C0C0" stroke="none" x="983" y="535" width="51.919921875" height="45" transform="matrix(1 0 0 1 -750 -398)" fill-opacity="0.2"/></g><g><rect fill="#A3E0FF" stroke="none" x="976" y="528" width="51.919921875" height="45" transform="matrix(1 0 0 1 -750 -398)"/></g><g><path fill="none" stroke="#000000" paint-order="fill stroke markers" d=" M 226 130 L 277.919921875 130 L 277.919921875 175 L 226 175 L 226 130 Z Z" stroke-miterlimit="10" stroke-dasharray=""/></g><g><path fill="none" stroke="#000000" paint-order="fill stroke markers" d=" M 226 155 L 277.919921875 155" stroke-miterlimit="10" stroke-dasharray=""/></g><g><path fill="none" stroke="#000000" paint-order="fill stroke markers" d=" M 226 165 L 277.919921875 165" stroke-miterlimit="10" stroke-dasharray=""/></g><g><g><path fill="none" stroke="none"/><text fill="#000000" stroke="none" font-family="Arial" font-size="13px" font-style="normal" font-weight="bold" text-decoration="undefined" x="1002.4599609375" y="541.5" text-anchor="middle" dominant-baseline="central" transform="matrix(1 0 0 1 -750 -398)">Avatar</text></g></g><g><path fill="none" stroke="#000000" paint-order="fill stroke markers" d=" M 241 129 L 227 97" stroke-miterlimit="10" stroke-dasharray=""/></g><g><path fill="#000000" stroke="none" paint-order="stroke fill markers" d=" M 234.92997205552933 104.62335511428682 L 227 97 L 227.21681091837922 107.99786311179002 L 235.81801434843362 117.15546136784815"/></g><g><path fill="none" stroke="#000000" paint-order="fill stroke markers" d=" M 234.92997205552933 104.62335511428682 L 227 97 L 227.21681091837922 107.99786311179002 L 235.81801434843362 117.15546136784815 L 234.92997205552933 104.62335511428682" stroke-miterlimit="10" stroke-dasharray=""/></g><g><path fill="none" stroke="#000000" paint-order="fill stroke markers" d=" M 167 129 L 184 97" stroke-miterlimit="10" stroke-dasharray=""/></g><g><path fill="#000000" stroke="none" paint-order="stroke fill markers" d=" M 182.94961928246835 107.94973517251617 L 184 97 L 175.51463667912276 103.99990066448879 L 173.67858502884155 116.42854582806308"/></g><g><path fill="none" stroke="#000000" paint-order="fill stroke markers" d=" M 182.94961928246835 107.94973517251617 L 184 97 L 175.51463667912276 103.99990066448879 L 173.67858502884155 116.42854582806308 L 182.94961928246835 107.94973517251617" stroke-miterlimit="10" stroke-dasharray=""/></g><g><rect fill="#C0C0C0" stroke="none" x="775" y="535" width="83.4296875" height="45" transform="matrix(1 0 0 1 -750 -398)" fill-opacity="0.2"/></g><g><rect fill="#A3E0FF" stroke="none" x="768" y="528" width="83.4296875" height="45" transform="matrix(1 0 0 1 -750 -398)"/></g><g><path fill="none" stroke="#000000" paint-order="fill stroke markers" d=" M 18 130 L 101.4296875 130 L 101.4296875 175 L 18 175 L 18 130 Z Z" stroke-miterlimit="10" stroke-dasharray=""/></g><g><path fill="none" stroke="#000000" paint-order="fill stroke markers" d=" M 18 155 L 101.4296875 155" stroke-miterlimit="10" stroke-dasharray=""/></g><g><path fill="none" stroke="#000000" paint-order="fill stroke markers" d=" M 18 165 L 101.4296875 165" stroke-miterlimit="10" stroke-dasharray=""/></g><g><g><path fill="none" stroke="none"/><text fill="#000000" stroke="none" font-family="Arial" font-size="13px" font-style="normal" font-weight="bold" text-decoration="undefined" x="810.21484375" y="541.5" text-anchor="middle" dominant-baseline="central" transform="matrix(1 0 0 1 -750 -398)">Typography</text></g></g><g><path fill="none" stroke="#000000" paint-order="fill stroke markers" d=" M 94 129 L 142 97" stroke-miterlimit="10" stroke-dasharray=""/></g><g><path fill="#000000" stroke="none" paint-order="stroke fill markers" d=" M 135.87916371872973 106.1397682256108 L 142 97 L 131.20912306817831 99.13470724978384 L 123.69489352456742 109.20340431695502"/></g><g><path fill="none" stroke="#000000" paint-order="fill stroke markers" d=" M 135.87916371872973 106.1397682256108 L 142 97 L 131.20912306817831 99.13470724978384 L 123.69489352456742 109.20340431695502 L 135.87916371872973 106.1397682256108" stroke-miterlimit="10" stroke-dasharray=""/></g><g><rect fill="#C0C0C0" stroke="none" x="1063" y="535" width="64" height="45" transform="matrix(1 0 0 1 -750 -398)" fill-opacity="0.2"/></g><g><rect fill="#A3E0FF" stroke="none" x="1056" y="528" width="64" height="45" transform="matrix(1 0 0 1 -750 -398)"/></g><g><path fill="none" stroke="#000000" paint-order="fill stroke markers" d=" M 306 130 L 370 130 L 370 175 L 306 175 L 306 130 Z Z" stroke-miterlimit="10" stroke-dasharray=""/></g><g><path fill="none" stroke="#000000" paint-order="fill stroke markers" d=" M 306 155 L 370 155" stroke-miterlimit="10" stroke-dasharray=""/></g><g><path fill="none" stroke="#000000" paint-order="fill stroke markers" d=" M 306 165 L 370 165" stroke-miterlimit="10" stroke-dasharray=""/></g><g><g><path fill="none" stroke="none"/><text fill="#000000" stroke="none" font-family="Arial" font-size="13px" font-style="normal" font-weight="bold" text-decoration="undefined" x="1088.5" y="541.5" text-anchor="middle" dominant-baseline="central" transform="matrix(1 0 0 1 -750 -398)">Box</text></g></g><g><path fill="none" stroke="#000000" paint-order="fill stroke markers" d=" M 308 129 L 266 97" stroke-miterlimit="10" stroke-dasharray=""/></g><g><path fill="#000000" stroke="none" paint-order="stroke fill markers" d=" M 276.6348636176931 99.81063619721039 L 266 97 L 271.532564266569 106.50740409556067 L 283.49949784071487 110.33295073578284"/></g><g><path fill="none" stroke="#000000" paint-order="fill stroke markers" d=" M 276.6348636176931 99.81063619721039 L 266 97 L 271.532564266569 106.50740409556067 L 283.49949784071487 110.33295073578284 L 276.6348636176931 99.81063619721039" stroke-miterlimit="10" stroke-dasharray=""/></g></g></svg>