<?xml version="1.0" encoding="utf-8"?>
<svg height="175" version="1.1" width="357" xmlns="http://www.w3.org/2000/svg" xmlns:xlink="http://www.w3.org/1999/xlink"><defs/><g><text dominant-baseline="alphabetic" fill="#cfcfcf" font-family="Arial" font-size="8px" font-style="normal" font-weight="normal" stroke="none" text-anchor="start" text-decoration="undefined" transform="matrix(1 0 0 1 0 0)" x="0" y="0"></text><text dominant-baseline="alphabetic" fill="#cfcfcf" font-family="Arial" font-size="8px" font-style="normal" font-weight="normal" stroke="none" text-anchor="start" text-decoration="undefined" transform="matrix(1 0 0 1 0 0)" x="0" y="12"></text><text dominant-baseline="alphabetic" fill="#cfcfcf" font-family="Arial" font-size="8px" font-style="normal" font-weight="normal" stroke="none" text-anchor="start" text-decoration="undefined" transform="matrix(1 0 0 1 0 0)" x="0" y="24"></text><text dominant-baseline="alphabetic" fill="#cfcfcf" font-family="Arial" font-size="8px" font-style="normal" font-weight="normal" stroke="none" text-anchor="start" text-decoration="undefined" transform="matrix(1 0 0 1 0 0)" x="0" y="36"></text><text dominant-baseline="alphabetic" fill="#cfcfcf" font-family="Arial" font-size="8px" font-style="normal" font-weight="normal" stroke="none" text-anchor="start" text-decoration="undefined" transform="matrix(1 0 0 1 0 0)" x="0" y="48"></text><text dominant-baseline="alphabetic" fill="#cfcfcf" font-family="Arial" font-size="8px" font-style="normal" font-weight="normal" stroke="none" text-anchor="start" text-decoration="undefined" transform="matrix(1 0 0 1 0 0)" x="0" y="60"></text><text dominant-baseline="alphabetic" fill="#cfcfcf" font-family="Arial" font-size="8px" font-style="normal" font-weight="normal" stroke="none" text-anchor="start" text-decoration="undefined" transform="matrix(1 0 0 1 0 0)" x="0" y="72"></text><text dominant-baseline="alphabetic" fill="#cfcfcf" font-family="Arial" font-size="8px" font-style="normal" font-weight="normal" stroke="none" text-anchor="start" text-decoration="undefined" transform="matrix(1 0 0 1 0 0)" x="0" y="84"></text><text dominant-baseline="alphabetic" fill="#cfcfcf" font-family="Arial" font-size="8px" font-style="normal" font-weight="normal" stroke="none" text-anchor="start" text-decoration="undefined" transform="matrix(1 0 0 1 0 0)" x="0" y="96"></text><text dominant-baseline="alphabetic" fill="#cfcfcf" font-family="Arial" font-size="8px" font-style="normal" font-weight="normal" stroke="none" text-anchor="start" text-decoration="undefined" transform="matrix(1 0 0 1 0 0)" x="0" y="108"></text><text dominant-baseline="alphabetic" fill="#cfcfcf" font-family="Arial" font-size="8px" font-style="normal" font-weight="normal" stroke="none" text-anchor="start" text-decoration="undefined" transform="matrix(1 0 0 1 0 0)" x="0" y="120"></text><text dominant-baseline="alphabetic" fill="#cfcfcf" font-family="Arial" font-size="8px" font-style="normal" font-weight="normal" stroke="none" text-anchor="start" text-decoration="undefined" transform="matrix(1 0 0 1 0 0)" x="0" y="132"></text><text dominant-baseline="alphabetic" fill="#cfcfcf" font-family="Arial" font-size="8px" font-style="normal" font-weight="normal" stroke="none" text-anchor="start" text-decoration="undefined" transform="matrix(1 0 0 1 0 0)" x="0" y="144"></text><text dominant-baseline="alphabetic" fill="#cfcfcf" font-family="Arial" font-size="8px" font-style="normal" font-weight="normal" stroke="none" text-anchor="start" text-decoration="undefined" transform="matrix(1 0 0 1 0 0)" x="0" y="156"></text><text dominant-baseline="alphabetic" fill="#cfcfcf" font-family="Arial" font-size="8px" font-style="normal" font-weight="normal" stroke="none" text-anchor="start" text-decoration="undefined" transform="matrix(1 0 0 1 0 0)" x="0" y="168"></text><text dominant-baseline="alphabetic" fill="#cfcfcf" font-family="Arial" font-size="8px" font-style="normal" font-weight="normal" stroke="none" text-anchor="start" text-decoration="undefined" transform="matrix(1 0 0 1 0 0)" x="70" y="0"></text><text dominant-baseline="alphabetic" fill="#cfcfcf" font-family="Arial" font-size="8px" font-style="normal" font-weight="normal" stroke="none" text-anchor="start" text-decoration="undefined" transform="matrix(1 0 0 1 0 0)" x="70" y="12"></text><text dominant-baseline="alphabetic" fill="#cfcfcf" font-family="Arial" font-size="8px" font-style="normal" font-weight="normal" stroke="none" text-anchor="start" text-decoration="undefined" transform="matrix(1 0 0 1 0 0)" x="70" y="24"></text><text dominant-baseline="alphabetic" fill="#cfcfcf" font-family="Arial" font-size="8px" font-style="normal" font-weight="normal" stroke="none" text-anchor="start" text-decoration="undefined" transform="matrix(1 0 0 1 0 0)" x="70" y="36"></text><text dominant-baseline="alphabetic" fill="#cfcfcf" font-family="Arial" font-size="8px" font-style="normal" font-weight="normal" stroke="none" text-anchor="start" text-decoration="undefined" transform="matrix(1 0 0 1 0 0)" x="70" y="48"></text><text dominant-baseline="alphabetic" fill="#cfcfcf" font-family="Arial" font-size="8px" font-style="normal" font-weight="normal" stroke="none" text-anchor="start" text-decoration="undefined" transform="matrix(1 0 0 1 0 0)" x="70" y="60"></text><text dominant-baseline="alphabetic" fill="#cfcfcf" font-family="Arial" font-size="8px" font-style="normal" font-weight="normal" stroke="none" text-anchor="start" text-decoration="undefined" transform="matrix(1 0 0 1 0 0)" x="70" y="72"></text><text dominant-baseline="alphabetic" fill="#cfcfcf" font-family="Arial" font-size="8px" font-style="normal" font-weight="normal" stroke="none" text-anchor="start" text-decoration="undefined" transform="matrix(1 0 0 1 0 0)" x="70" y="84"></text><text dominant-baseline="alphabetic" fill="#cfcfcf" font-family="Arial" font-size="8px" font-style="normal" font-weight="normal" stroke="none" text-anchor="start" text-decoration="undefined" transform="matrix(1 0 0 1 0 0)" x="70" y="96"></text><text dominant-baseline="alphabetic" fill="#cfcfcf" font-family="Arial" font-size="8px" font-style="normal" font-weight="normal" stroke="none" text-anchor="start" text-decoration="undefined" transform="matrix(1 0 0 1 0 0)" x="70" y="108"></text><text dominant-baseline="alphabetic" fill="#cfcfcf" font-family="Arial" font-size="8px" font-style="normal" font-weight="normal" stroke="none" text-anchor="start" text-decoration="undefined" transform="matrix(1 0 0 1 0 0)" x="70" y="120"></text><text dominant-baseline="alphabetic" fill="#cfcfcf" font-family="Arial" font-size="8px" font-style="normal" font-weight="normal" stroke="none" text-anchor="start" text-decoration="undefined" transform="matrix(1 0 0 1 0 0)" x="70" y="132"></text><text dominant-baseline="alphabetic" fill="#cfcfcf" font-family="Arial" font-size="8px" font-style="normal" font-weight="normal" stroke="none" text-anchor="start" text-decoration="undefined" transform="matrix(1 0 0 1 0 0)" x="70" y="144"></text><text dominant-baseline="alphabetic" fill="#cfcfcf" font-family="Arial" font-size="8px" font-style="normal" font-weight="normal" stroke="none" text-anchor="start" text-decoration="undefined" transform="matrix(1 0 0 1 0 0)" x="70" y="156"></text><text dominant-baseline="alphabetic" fill="#cfcfcf" font-family="Arial" font-size="8px" font-style="normal" font-weight="normal" stroke="none" text-anchor="start" text-decoration="undefined" transform="matrix(1 0 0 1 0 0)" x="70" y="168"></text><text dominant-baseline="alphabetic" fill="#cfcfcf" font-family="Arial" font-size="8px" font-style="normal" font-weight="normal" stroke="none" text-anchor="start" text-decoration="undefined" transform="matrix(1 0 0 1 0 0)" x="140" y="0"></text><text dominant-baseline="alphabetic" fill="#cfcfcf" font-family="Arial" font-size="8px" font-style="normal" font-weight="normal" stroke="none" text-anchor="start" text-decoration="undefined" transform="matrix(1 0 0 1 0 0)" x="140" y="12"></text><text dominant-baseline="alphabetic" fill="#cfcfcf" font-family="Arial" font-size="8px" font-style="normal" font-weight="normal" stroke="none" text-anchor="start" text-decoration="undefined" transform="matrix(1 0 0 1 0 0)" x="140" y="24"></text><text dominant-baseline="alphabetic" fill="#cfcfcf" font-family="Arial" font-size="8px" font-style="normal" font-weight="normal" stroke="none" text-anchor="start" text-decoration="undefined" transform="matrix(1 0 0 1 0 0)" x="140" y="36"></text><text dominant-baseline="alphabetic" fill="#cfcfcf" font-family="Arial" font-size="8px" font-style="normal" font-weight="normal" stroke="none" text-anchor="start" text-decoration="undefined" transform="matrix(1 0 0 1 0 0)" x="140" y="48"></text><text dominant-baseline="alphabetic" fill="#cfcfcf" font-family="Arial" font-size="8px" font-style="normal" font-weight="normal" stroke="none" text-anchor="start" text-decoration="undefined" transform="matrix(1 0 0 1 0 0)" x="140" y="60"></text><text dominant-baseline="alphabetic" fill="#cfcfcf" font-family="Arial" font-size="8px" font-style="normal" font-weight="normal" stroke="none" text-anchor="start" text-decoration="undefined" transform="matrix(1 0 0 1 0 0)" x="140" y="72"></text><text dominant-baseline="alphabetic" fill="#cfcfcf" font-family="Arial" font-size="8px" font-style="normal" font-weight="normal" stroke="none" text-anchor="start" text-decoration="undefined" transform="matrix(1 0 0 1 0 0)" x="140" y="84"></text><text dominant-baseline="alphabetic" fill="#cfcfcf" font-family="Arial" font-size="8px" font-style="normal" font-weight="normal" stroke="none" text-anchor="start" text-decoration="undefined" transform="matrix(1 0 0 1 0 0)" x="140" y="96"></text><text dominant-baseline="alphabetic" fill="#cfcfcf" font-family="Arial" font-size="8px" font-style="normal" font-weight="normal" stroke="none" text-anchor="start" text-decoration="undefined" transform="matrix(1 0 0 1 0 0)" x="140" y="108"></text><text dominant-baseline="alphabetic" fill="#cfcfcf" font-family="Arial" font-size="8px" font-style="normal" font-weight="normal" stroke="none" text-anchor="start" text-decoration="undefined" transform="matrix(1 0 0 1 0 0)" x="140" y="120"></text><text dominant-baseline="alphabetic" fill="#cfcfcf" font-family="Arial" font-size="8px" font-style="normal" font-weight="normal" stroke="none" text-anchor="start" text-decoration="undefined" transform="matrix(1 0 0 1 0 0)" x="140" y="132"></text><text dominant-baseline="alphabetic" fill="#cfcfcf" font-family="Arial" font-size="8px" font-style="normal" font-weight="normal" stroke="none" text-anchor="start" text-decoration="undefined" transform="matrix(1 0 0 1 0 0)" x="140" y="144"></text><text dominant-baseline="alphabetic" fill="#cfcfcf" font-family="Arial" font-size="8px" font-style="normal" font-weight="normal" stroke="none" text-anchor="start" text-decoration="undefined" transform="matrix(1 0 0 1 0 0)" x="140" y="156"></text><text dominant-baseline="alphabetic" fill="#cfcfcf" font-family="Arial" font-size="8px" font-style="normal" font-weight="normal" stroke="none" text-anchor="start" text-decoration="undefined" transform="matrix(1 0 0 1 0 0)" x="140" y="168"></text><text dominant-baseline="alphabetic" fill="#cfcfcf" font-family="Arial" font-size="8px" font-style="normal" font-weight="normal" stroke="none" text-anchor="start" text-decoration="undefined" transform="matrix(1 0 0 1 0 0)" x="210" y="0"></text><text dominant-baseline="alphabetic" fill="#cfcfcf" font-family="Arial" font-size="8px" font-style="normal" font-weight="normal" stroke="none" text-anchor="start" text-decoration="undefined" transform="matrix(1 0 0 1 0 0)" x="210" y="12"></text><text dominant-baseline="alphabetic" fill="#cfcfcf" font-family="Arial" font-size="8px" font-style="normal" font-weight="normal" stroke="none" text-anchor="start" text-decoration="undefined" transform="matrix(1 0 0 1 0 0)" x="210" y="24"></text><text dominant-baseline="alphabetic" fill="#cfcfcf" font-family="Arial" font-size="8px" font-style="normal" font-weight="normal" stroke="none" text-anchor="start" text-decoration="undefined" transform="matrix(1 0 0 1 0 0)" x="210" y="36"></text><text dominant-baseline="alphabetic" fill="#cfcfcf" font-family="Arial" font-size="8px" font-style="normal" font-weight="normal" stroke="none" text-anchor="start" text-decoration="undefined" transform="matrix(1 0 0 1 0 0)" x="210" y="48"></text><text dominant-baseline="alphabetic" fill="#cfcfcf" font-family="Arial" font-size="8px" font-style="normal" font-weight="normal" stroke="none" text-anchor="start" text-decoration="undefined" transform="matrix(1 0 0 1 0 0)" x="210" y="60"></text><text dominant-baseline="alphabetic" fill="#cfcfcf" font-family="Arial" font-size="8px" font-style="normal" font-weight="normal" stroke="none" text-anchor="start" text-decoration="undefined" transform="matrix(1 0 0 1 0 0)" x="210" y="72"></text><text dominant-baseline="alphabetic" fill="#cfcfcf" font-family="Arial" font-size="8px" font-style="normal" font-weight="normal" stroke="none" text-anchor="start" text-decoration="undefined" transform="matrix(1 0 0 1 0 0)" x="210" y="84"></text><text dominant-baseline="alphabetic" fill="#cfcfcf" font-family="Arial" font-size="8px" font-style="normal" font-weight="normal" stroke="none" text-anchor="start" text-decoration="undefined" transform="matrix(1 0 0 1 0 0)" x="210" y="96"></text><text dominant-baseline="alphabetic" fill="#cfcfcf" font-family="Arial" font-size="8px" font-style="normal" font-weight="normal" stroke="none" text-anchor="start" text-decoration="undefined" transform="matrix(1 0 0 1 0 0)" x="210" y="108"></text><text dominant-baseline="alphabetic" fill="#cfcfcf" font-family="Arial" font-size="8px" font-style="normal" font-weight="normal" stroke="none" text-anchor="start" text-decoration="undefined" transform="matrix(1 0 0 1 0 0)" x="210" y="120"></text><text dominant-baseline="alphabetic" fill="#cfcfcf" font-family="Arial" font-size="8px" font-style="normal" font-weight="normal" stroke="none" text-anchor="start" text-decoration="undefined" transform="matrix(1 0 0 1 0 0)" x="210" y="132"></text><text dominant-baseline="alphabetic" fill="#cfcfcf" font-family="Arial" font-size="8px" font-style="normal" font-weight="normal" stroke="none" text-anchor="start" text-decoration="undefined" transform="matrix(1 0 0 1 0 0)" x="210" y="144"></text><text dominant-baseline="alphabetic" fill="#cfcfcf" font-family="Arial" font-size="8px" font-style="normal" font-weight="normal" stroke="none" text-anchor="start" text-decoration="undefined" transform="matrix(1 0 0 1 0 0)" x="210" y="156"></text><text dominant-baseline="alphabetic" fill="#cfcfcf" font-family="Arial" font-size="8px" font-style="normal" font-weight="normal" stroke="none" text-anchor="start" text-decoration="undefined" transform="matrix(1 0 0 1 0 0)" x="210" y="168"></text><text dominant-baseline="alphabetic" fill="#cfcfcf" font-family="Arial" font-size="8px" font-style="normal" font-weight="normal" stroke="none" text-anchor="start" text-decoration="undefined" transform="matrix(1 0 0 1 0 0)" x="280" y="0"></text><text dominant-baseline="alphabetic" fill="#cfcfcf" font-family="Arial" font-size="8px" font-style="normal" font-weight="normal" stroke="none" text-anchor="start" text-decoration="undefined" transform="matrix(1 0 0 1 0 0)" x="280" y="12"></text><text dominant-baseline="alphabetic" fill="#cfcfcf" font-family="Arial" font-size="8px" font-style="normal" font-weight="normal" stroke="none" text-anchor="start" text-decoration="undefined" transform="matrix(1 0 0 1 0 0)" x="280" y="24"></text><text dominant-baseline="alphabetic" fill="#cfcfcf" font-family="Arial" font-size="8px" font-style="normal" font-weight="normal" stroke="none" text-anchor="start" text-decoration="undefined" transform="matrix(1 0 0 1 0 0)" x="280" y="36"></text><text dominant-baseline="alphabetic" fill="#cfcfcf" font-family="Arial" font-size="8px" font-style="normal" font-weight="normal" stroke="none" text-anchor="start" text-decoration="undefined" transform="matrix(1 0 0 1 0 0)" x="280" y="48"></text><text dominant-baseline="alphabetic" fill="#cfcfcf" font-family="Arial" font-size="8px" font-style="normal" font-weight="normal" stroke="none" text-anchor="start" text-decoration="undefined" transform="matrix(1 0 0 1 0 0)" x="280" y="60"></text><text dominant-baseline="alphabetic" fill="#cfcfcf" font-family="Arial" font-size="8px" font-style="normal" font-weight="normal" stroke="none" text-anchor="start" text-decoration="undefined" transform="matrix(1 0 0 1 0 0)" x="280" y="72"></text><text dominant-baseline="alphabetic" fill="#cfcfcf" font-family="Arial" font-size="8px" font-style="normal" font-weight="normal" stroke="none" text-anchor="start" text-decoration="undefined" transform="matrix(1 0 0 1 0 0)" x="280" y="84"></text><text dominant-baseline="alphabetic" fill="#cfcfcf" font-family="Arial" font-size="8px" font-style="normal" font-weight="normal" stroke="none" text-anchor="start" text-decoration="undefined" transform="matrix(1 0 0 1 0 0)" x="280" y="96"></text><text dominant-baseline="alphabetic" fill="#cfcfcf" font-family="Arial" font-size="8px" font-style="normal" font-weight="normal" stroke="none" text-anchor="start" text-decoration="undefined" transform="matrix(1 0 0 1 0 0)" x="280" y="108"></text><text dominant-baseline="alphabetic" fill="#cfcfcf" font-family="Arial" font-size="8px" font-style="normal" font-weight="normal" stroke="none" text-anchor="start" text-decoration="undefined" transform="matrix(1 0 0 1 0 0)" x="280" y="120"></text><text dominant-baseline="alphabetic" fill="#cfcfcf" font-family="Arial" font-size="8px" font-style="normal" font-weight="normal" stroke="none" text-anchor="start" text-decoration="undefined" transform="matrix(1 0 0 1 0 0)" x="280" y="132"></text><text dominant-baseline="alphabetic" fill="#cfcfcf" font-family="Arial" font-size="8px" font-style="normal" font-weight="normal" stroke="none" text-anchor="start" text-decoration="undefined" transform="matrix(1 0 0 1 0 0)" x="280" y="144"></text><text dominant-baseline="alphabetic" fill="#cfcfcf" font-family="Arial" font-size="8px" font-style="normal" font-weight="normal" stroke="none" text-anchor="start" text-decoration="undefined" transform="matrix(1 0 0 1 0 0)" x="280" y="156"></text><text dominant-baseline="alphabetic" fill="#cfcfcf" font-family="Arial" font-size="8px" font-style="normal" font-weight="normal" stroke="none" text-anchor="start" text-decoration="undefined" transform="matrix(1 0 0 1 0 0)" x="280" y="168"></text><text dominant-baseline="alphabetic" fill="#cfcfcf" font-family="Arial" font-size="8px" font-style="normal" font-weight="normal" stroke="none" text-anchor="start" text-decoration="undefined" transform="matrix(1 0 0 1 0 0)" x="350" y="0"></text><text dominant-baseline="alphabetic" fill="#cfcfcf" font-family="Arial" font-size="8px" font-style="normal" font-weight="normal" stroke="none" text-anchor="start" text-decoration="undefined" transform="matrix(1 0 0 1 0 0)" x="350" y="12"></text><text dominant-baseline="alphabetic" fill="#cfcfcf" font-family="Arial" font-size="8px" font-style="normal" font-weight="normal" stroke="none" text-anchor="start" text-decoration="undefined" transform="matrix(1 0 0 1 0 0)" x="350" y="24"></text><text dominant-baseline="alphabetic" fill="#cfcfcf" font-family="Arial" font-size="8px" font-style="normal" font-weight="normal" stroke="none" text-anchor="start" text-decoration="undefined" transform="matrix(1 0 0 1 0 0)" x="350" y="36"></text><text dominant-baseline="alphabetic" fill="#cfcfcf" font-family="Arial" font-size="8px" font-style="normal" font-weight="normal" stroke="none" text-anchor="start" text-decoration="undefined" transform="matrix(1 0 0 1 0 0)" x="350" y="48"></text><text dominant-baseline="alphabetic" fill="#cfcfcf" font-family="Arial" font-size="8px" font-style="normal" font-weight="normal" stroke="none" text-anchor="start" text-decoration="undefined" transform="matrix(1 0 0 1 0 0)" x="350" y="60"></text><text dominant-baseline="alphabetic" fill="#cfcfcf" font-family="Arial" font-size="8px" font-style="normal" font-weight="normal" stroke="none" text-anchor="start" text-decoration="undefined" transform="matrix(1 0 0 1 0 0)" x="350" y="72"></text><text dominant-baseline="alphabetic" fill="#cfcfcf" font-family="Arial" font-size="8px" font-style="normal" font-weight="normal" stroke="none" text-anchor="start" text-decoration="undefined" transform="matrix(1 0 0 1 0 0)" x="350" y="84"></text><text dominant-baseline="alphabetic" fill="#cfcfcf" font-family="Arial" font-size="8px" font-style="normal" font-weight="normal" stroke="none" text-anchor="start" text-decoration="undefined" transform="matrix(1 0 0 1 0 0)" x="350" y="96"></text><text dominant-baseline="alphabetic" fill="#cfcfcf" font-family="Arial" font-size="8px" font-style="normal" font-weight="normal" stroke="none" text-anchor="start" text-decoration="undefined" transform="matrix(1 0 0 1 0 0)" x="350" y="108"></text><text dominant-baseline="alphabetic" fill="#cfcfcf" font-family="Arial" font-size="8px" font-style="normal" font-weight="normal" stroke="none" text-anchor="start" text-decoration="undefined" transform="matrix(1 0 0 1 0 0)" x="350" y="120"></text><text dominant-baseline="alphabetic" fill="#cfcfcf" font-family="Arial" font-size="8px" font-style="normal" font-weight="normal" stroke="none" text-anchor="start" text-decoration="undefined" transform="matrix(1 0 0 1 0 0)" x="350" y="132"></text><text dominant-baseline="alphabetic" fill="#cfcfcf" font-family="Arial" font-size="8px" font-style="normal" font-weight="normal" stroke="none" text-anchor="start" text-decoration="undefined" transform="matrix(1 0 0 1 0 0)" x="350" y="144"></text><text dominant-baseline="alphabetic" fill="#cfcfcf" font-family="Arial" font-size="8px" font-style="normal" font-weight="normal" stroke="none" text-anchor="start" text-decoration="undefined" transform="matrix(1 0 0 1 0 0)" x="350" y="156"></text><text dominant-baseline="alphabetic" fill="#cfcfcf" font-family="Arial" font-size="8px" font-style="normal" font-weight="normal" stroke="none" text-anchor="start" text-decoration="undefined" transform="matrix(1 0 0 1 0 0)" x="350" y="168"></text><g><rect fill="#C0C0C0" fill-opacity="0.2" height="73" stroke="none" transform="matrix(1 0 0 1 -678 -416)" width="206" x="777" y="433"/></g><g><rect fill="#FFFFFF" height="73" stroke="none" transform="matrix(1 0 0 1 -678 -416)" width="206" x="770" y="426"/></g><g><path d=" M 92 10 L 298 10 L 298 83 L 92 83 L 92 10 Z Z" fill="none" paint-order="fill stroke markers" stroke="#000000" stroke-dasharray="" stroke-miterlimit="10"/></g><g><path d=" M 92 35 L 298 35" fill="none" paint-order="fill stroke markers" stroke="#000000" stroke-dasharray="" stroke-miterlimit="10"/></g><g><path d=" M 92 73 L 298 73" fill="none" paint-order="fill stroke markers" stroke="#000000" stroke-dasharray="" stroke-miterlimit="10"/></g><g><g><path fill="none" stroke="none"/><text dominant-baseline="central" fill="#000000" font-family="Arial" font-size="13px" font-style="normal" font-weight="bold" stroke="none" text-anchor="middle" text-decoration="undefined" transform="matrix(1 0 0 1 -678 -416)" x="873.5" y="439.5">PersonCard</text></g></g><g><g><path fill="none" stroke="none"/><text dominant-baseline="central" fill="#000000" font-family="Arial" font-size="13px" font-style="normal" font-weight="normal" stroke="none" text-anchor="start" text-decoration="undefined" transform="matrix(1 0 0 1 -678 -416)" x="775" y="462.5">+name: string</text></g></g><g><g><path fill="none" stroke="none"/><text dominant-baseline="central" fill="#000000" font-family="Arial" font-size="13px" font-style="normal" font-weight="normal" stroke="none" text-anchor="start" text-decoration="undefined" transform="matrix(1 0 0 1 -678 -416)" x="775" y="477.5">+gitHubUsername: string</text></g></g><g><rect fill="#C0C0C0" fill-opacity="0.2" height="45" stroke="none" transform="matrix(1 0 0 1 -678 -416)" width="51.919921875" x="815" y="543"/></g><g><rect fill="#A3E0FF" height="45" stroke="none" transform="matrix(1 0 0 1 -678 -416)" width="51.919921875" x="808" y="536"/></g><g><path d=" M 130 120 L 181.919921875 120 L 181.919921875 165 L 130 165 L 130 120 Z Z" fill="none" paint-order="fill stroke markers" stroke="#000000" stroke-dasharray="" stroke-miterlimit="10"/></g><g><path d=" M 130 145 L 181.919921875 145" fill="none" paint-order="fill stroke markers" stroke="#000000" stroke-dasharray="" stroke-miterlimit="10"/></g><g><path d=" M 130 155 L 181.919921875 155" fill="none" paint-order="fill stroke markers" stroke="#000000" stroke-dasharray="" stroke-miterlimit="10"/></g><g><g><path fill="none" stroke="none"/><text dominant-baseline="central" fill="#000000" font-family="Arial" font-size="13px" font-style="normal" font-weight="bold" stroke="none" text-anchor="middle" text-decoration="undefined" transform="matrix(1 0 0 1 -678 -416)" x="834.4599609375" y="549.5">Link</text></g></g><g><rect fill="#C0C0C0" fill-opacity="0.2" height="45" stroke="none" transform="matrix(1 0 0 1 -678 -416)" width="51.919921875" x="895" y="543"/></g><g><rect fill="#A3E0FF" height="45" stroke="none" transform="matrix(1 0 0 1 -678 -416)" width="51.919921875" x="888" y="536"/></g><g><path d=" M 210 120 L 261.919921875 120 L 261.919921875 165 L 210 165 L 210 120 Z Z" fill="none" paint-order="fill stroke markers" stroke="#000000" stroke-dasharray="" stroke-miterlimit="10"/></g><g><path d=" M 210 145 L 261.919921875 145" fill="none" paint-order="fill stroke markers" stroke="#000000" stroke-dasharray="" stroke-miterlimit="10"/></g><g><path d=" M 210 155 L 261.919921875 155" fill="none" paint-order="fill stroke markers" stroke="#000000" stroke-dasharray="" stroke-miterlimit="10"/></g><g><g><path fill="none" stroke="none"/><text dominant-baseline="central" fill="#000000" font-family="Arial" font-size="13px" font-style="normal" font-weight="bold" stroke="none" text-anchor="middle" text-decoration="undefined" transform="matrix(1 0 0 1 -678 -416)" x="914.4599609375" y="549.5">Avatar</text></g></g><g><path d=" M 225 119 L 211 84" fill="none" paint-order="fill stroke markers" stroke="#000000" stroke-dasharray="" stroke-miterlimit="10"/></g><g><path d=" M 218.68276180526834 91.87243107581833 L 211 84 L 210.86588357261144 94.99918236888107 L 219.17059487979031 104.42648719947567" fill="#000000" paint-order="stroke fill markers" stroke="none"/></g><g><path d=" M 218.68276180526834 91.87243107581833 L 211 84 L 210.86588357261144 94.99918236888107 L 219.17059487979031 104.42648719947567 L 218.68276180526834 91.87243107581833" fill="none" paint-order="fill stroke markers" stroke="#000000" stroke-dasharray="" stroke-miterlimit="10"/></g><g><path d=" M 165 119 L 179 84" fill="none" paint-order="fill stroke markers" stroke="#000000" stroke-dasharray="" stroke-miterlimit="10"/></g><g><path d=" M 179.13411642738856 94.99918236888107 L 179 84 L 171.31723819473166 91.87243107581833 L 170.82940512020969 104.42648719947567" fill="#000000" paint-order="stroke fill markers" stroke="none"/></g><g><path d=" M 179.13411642738856 94.99918236888107 L 179 84 L 171.31723819473166 91.87243107581833 L 170.82940512020969 104.42648719947567 L 179.13411642738856 94.99918236888107" fill="none" paint-order="fill stroke markers" stroke="#000000" stroke-dasharray="" stroke-miterlimit="10"/></g><g><rect fill="#C0C0C0" fill-opacity="0.2" height="45" stroke="none" transform="matrix(1 0 0 1 -678 -416)" width="83.4296875" x="695" y="535"/></g><g><rect fill="#A3E0FF" height="45" stroke="none" transform="matrix(1 0 0 1 -678 -416)" width="83.4296875" x="688" y="528"/></g><g><path d=" M 10 112 L 93.4296875 112 L 93.4296875 157 L 10 157 L 10 112 Z Z" fill="none" paint-order="fill stroke markers" stroke="#000000" stroke-dasharray="" stroke-miterlimit="10"/></g><g><path d=" M 10 137 L 93.4296875 137" fill="none" paint-order="fill stroke markers" stroke="#000000" stroke-dasharray="" stroke-miterlimit="10"/></g><g><path d=" M 10 147 L 93.4296875 147" fill="none" paint-order="fill stroke markers" stroke="#000000" stroke-dasharray="" stroke-miterlimit="10"/></g><g><g><path fill="none" stroke="none"/><text dominant-baseline="central" fill="#000000" font-family="Arial" font-size="13px" font-style="normal" font-weight="bold" stroke="none" text-anchor="middle" text-decoration="undefined" transform="matrix(1 0 0 1 -678 -416)" x="730.21484375" y="541.5">Typography</text></g></g><g><path d=" M 89 111 L 133 84" fill="none" paint-order="fill stroke markers" stroke="#000000" stroke-dasharray="" stroke-miterlimit="10"/></g><g><path d=" M 126.53976729913438 92.90311144772812 L 133 84 L 122.13647517082677 85.72737612752297 L 114.24889996972934 95.50635683675699" fill="#000000" paint-order="stroke fill markers" stroke="none"/></g><g><path d=" M 126.53976729913438 92.90311144772812 L 133 84 L 122.13647517082677 85.72737612752297 L 114.24889996972934 95.50635683675699 L 126.53976729913438 92.90311144772812" fill="none" paint-order="fill stroke markers" stroke="#000000" stroke-dasharray="" stroke-miterlimit="10"/></g><g><rect fill="#C0C0C0" fill-opacity="0.2" height="45" stroke="none" transform="matrix(1 0 0 1 -678 -416)" width="64" x="967" y="535"/></g><g><rect fill="#A3E0FF" height="45" stroke="none" transform="matrix(1 0 0 1 -678 -416)" width="64" x="960" y="528"/></g><g><path d=" M 282 112 L 346 112 L 346 157 L 282 157 L 282 112 Z Z" fill="none" paint-order="fill stroke markers" stroke="#000000" stroke-dasharray="" stroke-miterlimit="10"/></g><g><path d=" M 282 137 L 346 137" fill="none" paint-order="fill stroke markers" stroke="#000000" stroke-dasharray="" stroke-miterlimit="10"/></g><g><path d=" M 282 147 L 346 147" fill="none" paint-order="fill stroke markers" stroke="#000000" stroke-dasharray="" stroke-miterlimit="10"/></g><g><g><path fill="none" stroke="none"/><text dominant-baseline="central" fill="#000000" font-family="Arial" font-size="13px" font-style="normal" font-weight="bold" stroke="none" text-anchor="middle" text-decoration="undefined" transform="matrix(1 0 0 1 -678 -416)" x="992.5" y="541.5">Box</text></g></g><g><path d=" M 283 111 L 246 84" fill="none" paint-order="fill stroke markers" stroke="#000000" stroke-dasharray="" stroke-miterlimit="10"/></g><g><path d=" M 256.6906972730626 86.59017215947767 L 246 84 L 251.7279362389878 93.39099283580231 L 263.7714008529026 96.96831954130732" fill="#000000" paint-order="stroke fill markers" stroke="none"/></g><g><path d=" M 256.6906972730626 86.59017215947767 L 246 84 L 251.7279362389878 93.39099283580231 L 263.7714008529026 96.96831954130732 L 256.6906972730626 86.59017215947767" fill="none" paint-order="fill stroke markers" stroke="#000000" stroke-dasharray="" stroke-miterlimit="10"/></g></g></svg>