<?xml version="1.0" encoding="utf-8"?>
<svg height="197" version="1.1" width="239.64111328125" xmlns="http://www.w3.org/2000/svg" xmlns:xlink="http://www.w3.org/1999/xlink"><defs/><g><text dominant-baseline="alphabetic" fill="#cfcfcf" font-family="Arial" font-size="8px" font-style="normal" font-weight="normal" stroke="none" text-anchor="start" text-decoration="undefined" transform="matrix(1 0 0 1 0 0)" x="0" y="0"></text><text dominant-baseline="alphabetic" fill="#cfcfcf" font-family="Arial" font-size="8px" font-style="normal" font-weight="normal" stroke="none" text-anchor="start" text-decoration="undefined" transform="matrix(1 0 0 1 0 0)" x="0" y="12"></text><text dominant-baseline="alphabetic" fill="#cfcfcf" font-family="Arial" font-size="8px" font-style="normal" font-weight="normal" stroke="none" text-anchor="start" text-decoration="undefined" transform="matrix(1 0 0 1 0 0)" x="0" y="24"></text><text dominant-baseline="alphabetic" fill="#cfcfcf" font-family="Arial" font-size="8px" font-style="normal" font-weight="normal" stroke="none" text-anchor="start" text-decoration="undefined" transform="matrix(1 0 0 1 0 0)" x="0" y="36"></text><text dominant-baseline="alphabetic" fill="#cfcfcf" font-family="Arial" font-size="8px" font-style="normal" font-weight="normal" stroke="none" text-anchor="start" text-decoration="undefined" transform="matrix(1 0 0 1 0 0)" x="0" y="48"></text><text dominant-baseline="alphabetic" fill="#cfcfcf" font-family="Arial" font-size="8px" font-style="normal" font-weight="normal" stroke="none" text-anchor="start" text-decoration="undefined" transform="matrix(1 0 0 1 0 0)" x="0" y="60"></text><text dominant-baseline="alphabetic" fill="#cfcfcf" font-family="Arial" font-size="8px" font-style="normal" font-weight="normal" stroke="none" text-anchor="start" text-decoration="undefined" transform="matrix(1 0 0 1 0 0)" x="0" y="72"></text><text dominant-baseline="alphabetic" fill="#cfcfcf" font-family="Arial" font-size="8px" font-style="normal" font-weight="normal" stroke="none" text-anchor="start" text-decoration="undefined" transform="matrix(1 0 0 1 0 0)" x="0" y="84"></text><text dominant-baseline="alphabetic" fill="#cfcfcf" font-family="Arial" font-size="8px" font-style="normal" font-weight="normal" stroke="none" text-anchor="start" text-decoration="undefined" transform="matrix(1 0 0 1 0 0)" x="0" y="96"></text><text dominant-baseline="alphabetic" fill="#cfcfcf" font-family="Arial" font-size="8px" font-style="normal" font-weight="normal" stroke="none" text-anchor="start" text-decoration="undefined" transform="matrix(1 0 0 1 0 0)" x="0" y="108"></text><text dominant-baseline="alphabetic" fill="#cfcfcf" font-family="Arial" font-size="8px" font-style="normal" font-weight="normal" stroke="none" text-anchor="start" text-decoration="undefined" transform="matrix(1 0 0 1 0 0)" x="0" y="120"></text><text dominant-baseline="alphabetic" fill="#cfcfcf" font-family="Arial" font-size="8px" font-style="normal" font-weight="normal" stroke="none" text-anchor="start" text-decoration="undefined" transform="matrix(1 0 0 1 0 0)" x="0" y="132"></text><text dominant-baseline="alphabetic" fill="#cfcfcf" font-family="Arial" font-size="8px" font-style="normal" font-weight="normal" stroke="none" text-anchor="start" text-decoration="undefined" transform="matrix(1 0 0 1 0 0)" x="0" y="144"></text><text dominant-baseline="alphabetic" fill="#cfcfcf" font-family="Arial" font-size="8px" font-style="normal" font-weight="normal" stroke="none" text-anchor="start" text-decoration="undefined" transform="matrix(1 0 0 1 0 0)" x="0" y="156"></text><text dominant-baseline="alphabetic" fill="#cfcfcf" font-family="Arial" font-size="8px" font-style="normal" font-weight="normal" stroke="none" text-anchor="start" text-decoration="undefined" transform="matrix(1 0 0 1 0 0)" x="0" y="168"></text><text dominant-baseline="alphabetic" fill="#cfcfcf" font-family="Arial" font-size="8px" font-style="normal" font-weight="normal" stroke="none" text-anchor="start" text-decoration="undefined" transform="matrix(1 0 0 1 0 0)" x="0" y="180"></text><text dominant-baseline="alphabetic" fill="#cfcfcf" font-family="Arial" font-size="8px" font-style="normal" font-weight="normal" stroke="none" text-anchor="start" text-decoration="undefined" transform="matrix(1 0 0 1 0 0)" x="0" y="192"></text><text dominant-baseline="alphabetic" fill="#cfcfcf" font-family="Arial" font-size="8px" font-style="normal" font-weight="normal" stroke="none" text-anchor="start" text-decoration="undefined" transform="matrix(1 0 0 1 0 0)" x="70" y="0"></text><text dominant-baseline="alphabetic" fill="#cfcfcf" font-family="Arial" font-size="8px" font-style="normal" font-weight="normal" stroke="none" text-anchor="start" text-decoration="undefined" transform="matrix(1 0 0 1 0 0)" x="70" y="12"></text><text dominant-baseline="alphabetic" fill="#cfcfcf" font-family="Arial" font-size="8px" font-style="normal" font-weight="normal" stroke="none" text-anchor="start" text-decoration="undefined" transform="matrix(1 0 0 1 0 0)" x="70" y="24"></text><text dominant-baseline="alphabetic" fill="#cfcfcf" font-family="Arial" font-size="8px" font-style="normal" font-weight="normal" stroke="none" text-anchor="start" text-decoration="undefined" transform="matrix(1 0 0 1 0 0)" x="70" y="36"></text><text dominant-baseline="alphabetic" fill="#cfcfcf" font-family="Arial" font-size="8px" font-style="normal" font-weight="normal" stroke="none" text-anchor="start" text-decoration="undefined" transform="matrix(1 0 0 1 0 0)" x="70" y="48"></text><text dominant-baseline="alphabetic" fill="#cfcfcf" font-family="Arial" font-size="8px" font-style="normal" font-weight="normal" stroke="none" text-anchor="start" text-decoration="undefined" transform="matrix(1 0 0 1 0 0)" x="70" y="60"></text><text dominant-baseline="alphabetic" fill="#cfcfcf" font-family="Arial" font-size="8px" font-style="normal" font-weight="normal" stroke="none" text-anchor="start" text-decoration="undefined" transform="matrix(1 0 0 1 0 0)" x="70" y="72"></text><text dominant-baseline="alphabetic" fill="#cfcfcf" font-family="Arial" font-size="8px" font-style="normal" font-weight="normal" stroke="none" text-anchor="start" text-decoration="undefined" transform="matrix(1 0 0 1 0 0)" x="70" y="84"></text><text dominant-baseline="alphabetic" fill="#cfcfcf" font-family="Arial" font-size="8px" font-style="normal" font-weight="normal" stroke="none" text-anchor="start" text-decoration="undefined" transform="matrix(1 0 0 1 0 0)" x="70" y="96"></text><text dominant-baseline="alphabetic" fill="#cfcfcf" font-family="Arial" font-size="8px" font-style="normal" font-weight="normal" stroke="none" text-anchor="start" text-decoration="undefined" transform="matrix(1 0 0 1 0 0)" x="70" y="108"></text><text dominant-baseline="alphabetic" fill="#cfcfcf" font-family="Arial" font-size="8px" font-style="normal" font-weight="normal" stroke="none" text-anchor="start" text-decoration="undefined" transform="matrix(1 0 0 1 0 0)" x="70" y="120"></text><text dominant-baseline="alphabetic" fill="#cfcfcf" font-family="Arial" font-size="8px" font-style="normal" font-weight="normal" stroke="none" text-anchor="start" text-decoration="undefined" transform="matrix(1 0 0 1 0 0)" x="70" y="132"></text><text dominant-baseline="alphabetic" fill="#cfcfcf" font-family="Arial" font-size="8px" font-style="normal" font-weight="normal" stroke="none" text-anchor="start" text-decoration="undefined" transform="matrix(1 0 0 1 0 0)" x="70" y="144"></text><text dominant-baseline="alphabetic" fill="#cfcfcf" font-family="Arial" font-size="8px" font-style="normal" font-weight="normal" stroke="none" text-anchor="start" text-decoration="undefined" transform="matrix(1 0 0 1 0 0)" x="70" y="156"></text><text dominant-baseline="alphabetic" fill="#cfcfcf" font-family="Arial" font-size="8px" font-style="normal" font-weight="normal" stroke="none" text-anchor="start" text-decoration="undefined" transform="matrix(1 0 0 1 0 0)" x="70" y="168"></text><text dominant-baseline="alphabetic" fill="#cfcfcf" font-family="Arial" font-size="8px" font-style="normal" font-weight="normal" stroke="none" text-anchor="start" text-decoration="undefined" transform="matrix(1 0 0 1 0 0)" x="70" y="180"></text><text dominant-baseline="alphabetic" fill="#cfcfcf" font-family="Arial" font-size="8px" font-style="normal" font-weight="normal" stroke="none" text-anchor="start" text-decoration="undefined" transform="matrix(1 0 0 1 0 0)" x="70" y="192"></text><text dominant-baseline="alphabetic" fill="#cfcfcf" font-family="Arial" font-size="8px" font-style="normal" font-weight="normal" stroke="none" text-anchor="start" text-decoration="undefined" transform="matrix(1 0 0 1 0 0)" x="140" y="0"></text><text dominant-baseline="alphabetic" fill="#cfcfcf" font-family="Arial" font-size="8px" font-style="normal" font-weight="normal" stroke="none" text-anchor="start" text-decoration="undefined" transform="matrix(1 0 0 1 0 0)" x="140" y="12"></text><text dominant-baseline="alphabetic" fill="#cfcfcf" font-family="Arial" font-size="8px" font-style="normal" font-weight="normal" stroke="none" text-anchor="start" text-decoration="undefined" transform="matrix(1 0 0 1 0 0)" x="140" y="24"></text><text dominant-baseline="alphabetic" fill="#cfcfcf" font-family="Arial" font-size="8px" font-style="normal" font-weight="normal" stroke="none" text-anchor="start" text-decoration="undefined" transform="matrix(1 0 0 1 0 0)" x="140" y="36"></text><text dominant-baseline="alphabetic" fill="#cfcfcf" font-family="Arial" font-size="8px" font-style="normal" font-weight="normal" stroke="none" text-anchor="start" text-decoration="undefined" transform="matrix(1 0 0 1 0 0)" x="140" y="48"></text><text dominant-baseline="alphabetic" fill="#cfcfcf" font-family="Arial" font-size="8px" font-style="normal" font-weight="normal" stroke="none" text-anchor="start" text-decoration="undefined" transform="matrix(1 0 0 1 0 0)" x="140" y="60"></text><text dominant-baseline="alphabetic" fill="#cfcfcf" font-family="Arial" font-size="8px" font-style="normal" font-weight="normal" stroke="none" text-anchor="start" text-decoration="undefined" transform="matrix(1 0 0 1 0 0)" x="140" y="72"></text><text dominant-baseline="alphabetic" fill="#cfcfcf" font-family="Arial" font-size="8px" font-style="normal" font-weight="normal" stroke="none" text-anchor="start" text-decoration="undefined" transform="matrix(1 0 0 1 0 0)" x="140" y="84"></text><text dominant-baseline="alphabetic" fill="#cfcfcf" font-family="Arial" font-size="8px" font-style="normal" font-weight="normal" stroke="none" text-anchor="start" text-decoration="undefined" transform="matrix(1 0 0 1 0 0)" x="140" y="96"></text><text dominant-baseline="alphabetic" fill="#cfcfcf" font-family="Arial" font-size="8px" font-style="normal" font-weight="normal" stroke="none" text-anchor="start" text-decoration="undefined" transform="matrix(1 0 0 1 0 0)" x="140" y="108"></text><text dominant-baseline="alphabetic" fill="#cfcfcf" font-family="Arial" font-size="8px" font-style="normal" font-weight="normal" stroke="none" text-anchor="start" text-decoration="undefined" transform="matrix(1 0 0 1 0 0)" x="140" y="120"></text><text dominant-baseline="alphabetic" fill="#cfcfcf" font-family="Arial" font-size="8px" font-style="normal" font-weight="normal" stroke="none" text-anchor="start" text-decoration="undefined" transform="matrix(1 0 0 1 0 0)" x="140" y="132"></text><text dominant-baseline="alphabetic" fill="#cfcfcf" font-family="Arial" font-size="8px" font-style="normal" font-weight="normal" stroke="none" text-anchor="start" text-decoration="undefined" transform="matrix(1 0 0 1 0 0)" x="140" y="144"></text><text dominant-baseline="alphabetic" fill="#cfcfcf" font-family="Arial" font-size="8px" font-style="normal" font-weight="normal" stroke="none" text-anchor="start" text-decoration="undefined" transform="matrix(1 0 0 1 0 0)" x="140" y="156"></text><text dominant-baseline="alphabetic" fill="#cfcfcf" font-family="Arial" font-size="8px" font-style="normal" font-weight="normal" stroke="none" text-anchor="start" text-decoration="undefined" transform="matrix(1 0 0 1 0 0)" x="140" y="168"></text><text dominant-baseline="alphabetic" fill="#cfcfcf" font-family="Arial" font-size="8px" font-style="normal" font-weight="normal" stroke="none" text-anchor="start" text-decoration="undefined" transform="matrix(1 0 0 1 0 0)" x="140" y="180"></text><text dominant-baseline="alphabetic" fill="#cfcfcf" font-family="Arial" font-size="8px" font-style="normal" font-weight="normal" stroke="none" text-anchor="start" text-decoration="undefined" transform="matrix(1 0 0 1 0 0)" x="140" y="192"></text><text dominant-baseline="alphabetic" fill="#cfcfcf" font-family="Arial" font-size="8px" font-style="normal" font-weight="normal" stroke="none" text-anchor="start" text-decoration="undefined" transform="matrix(1 0 0 1 0 0)" x="210" y="0"></text><text dominant-baseline="alphabetic" fill="#cfcfcf" font-family="Arial" font-size="8px" font-style="normal" font-weight="normal" stroke="none" text-anchor="start" text-decoration="undefined" transform="matrix(1 0 0 1 0 0)" x="210" y="12"></text><text dominant-baseline="alphabetic" fill="#cfcfcf" font-family="Arial" font-size="8px" font-style="normal" font-weight="normal" stroke="none" text-anchor="start" text-decoration="undefined" transform="matrix(1 0 0 1 0 0)" x="210" y="24"></text><text dominant-baseline="alphabetic" fill="#cfcfcf" font-family="Arial" font-size="8px" font-style="normal" font-weight="normal" stroke="none" text-anchor="start" text-decoration="undefined" transform="matrix(1 0 0 1 0 0)" x="210" y="36"></text><text dominant-baseline="alphabetic" fill="#cfcfcf" font-family="Arial" font-size="8px" font-style="normal" font-weight="normal" stroke="none" text-anchor="start" text-decoration="undefined" transform="matrix(1 0 0 1 0 0)" x="210" y="48"></text><text dominant-baseline="alphabetic" fill="#cfcfcf" font-family="Arial" font-size="8px" font-style="normal" font-weight="normal" stroke="none" text-anchor="start" text-decoration="undefined" transform="matrix(1 0 0 1 0 0)" x="210" y="60"></text><text dominant-baseline="alphabetic" fill="#cfcfcf" font-family="Arial" font-size="8px" font-style="normal" font-weight="normal" stroke="none" text-anchor="start" text-decoration="undefined" transform="matrix(1 0 0 1 0 0)" x="210" y="72"></text><text dominant-baseline="alphabetic" fill="#cfcfcf" font-family="Arial" font-size="8px" font-style="normal" font-weight="normal" stroke="none" text-anchor="start" text-decoration="undefined" transform="matrix(1 0 0 1 0 0)" x="210" y="84"></text><text dominant-baseline="alphabetic" fill="#cfcfcf" font-family="Arial" font-size="8px" font-style="normal" font-weight="normal" stroke="none" text-anchor="start" text-decoration="undefined" transform="matrix(1 0 0 1 0 0)" x="210" y="96"></text><text dominant-baseline="alphabetic" fill="#cfcfcf" font-family="Arial" font-size="8px" font-style="normal" font-weight="normal" stroke="none" text-anchor="start" text-decoration="undefined" transform="matrix(1 0 0 1 0 0)" x="210" y="108"></text><text dominant-baseline="alphabetic" fill="#cfcfcf" font-family="Arial" font-size="8px" font-style="normal" font-weight="normal" stroke="none" text-anchor="start" text-decoration="undefined" transform="matrix(1 0 0 1 0 0)" x="210" y="120"></text><text dominant-baseline="alphabetic" fill="#cfcfcf" font-family="Arial" font-size="8px" font-style="normal" font-weight="normal" stroke="none" text-anchor="start" text-decoration="undefined" transform="matrix(1 0 0 1 0 0)" x="210" y="132"></text><text dominant-baseline="alphabetic" fill="#cfcfcf" font-family="Arial" font-size="8px" font-style="normal" font-weight="normal" stroke="none" text-anchor="start" text-decoration="undefined" transform="matrix(1 0 0 1 0 0)" x="210" y="144"></text><text dominant-baseline="alphabetic" fill="#cfcfcf" font-family="Arial" font-size="8px" font-style="normal" font-weight="normal" stroke="none" text-anchor="start" text-decoration="undefined" transform="matrix(1 0 0 1 0 0)" x="210" y="156"></text><text dominant-baseline="alphabetic" fill="#cfcfcf" font-family="Arial" font-size="8px" font-style="normal" font-weight="normal" stroke="none" text-anchor="start" text-decoration="undefined" transform="matrix(1 0 0 1 0 0)" x="210" y="168"></text><text dominant-baseline="alphabetic" fill="#cfcfcf" font-family="Arial" font-size="8px" font-style="normal" font-weight="normal" stroke="none" text-anchor="start" text-decoration="undefined" transform="matrix(1 0 0 1 0 0)" x="210" y="180"></text><text dominant-baseline="alphabetic" fill="#cfcfcf" font-family="Arial" font-size="8px" font-style="normal" font-weight="normal" stroke="none" text-anchor="start" text-decoration="undefined" transform="matrix(1 0 0 1 0 0)" x="210" y="192"></text><g><rect fill="#C0C0C0" fill-opacity="0.2" height="58" stroke="none" transform="matrix(1 0 0 1 -614 -270)" width="218.64111328125" x="631" y="287"/></g><g><rect fill="#ffffff" height="58" stroke="none" transform="matrix(1 0 0 1 -614 -270)" width="218.64111328125" x="624" y="280"/></g><g><path d=" M 10 10 L 228.64111328125 10 L 228.64111328125 68 L 10 68 L 10 10 Z Z" fill="none" paint-order="fill stroke markers" stroke="#000000" stroke-dasharray="" stroke-miterlimit="10"/></g><g><path d=" M 10 35 L 228.64111328125 35" fill="none" paint-order="fill stroke markers" stroke="#000000" stroke-dasharray="" stroke-miterlimit="10"/></g><g><path d=" M 10 45 L 228.64111328125 45" fill="none" paint-order="fill stroke markers" stroke="#000000" stroke-dasharray="" stroke-miterlimit="10"/></g><g><g><path fill="none" stroke="none"/><text dominant-baseline="central" fill="#000000" font-family="Arial" font-size="13px" font-style="normal" font-weight="bold" stroke="none" text-anchor="middle" text-decoration="undefined" transform="matrix(1 0 0 1 -614 -270)" x="733.820556640625" y="293.5">RegisterService</text></g></g><g><g><path fill="none" stroke="none"/><text dominant-baseline="central" fill="#000000" font-family="Arial" font-size="13px" font-style="normal" font-weight="normal" stroke="none" text-anchor="start" text-decoration="undefined" transform="matrix(1 0 0 1 -614 -270)" x="629" y="326.5">+register(user: UserDTO): UserDTO</text></g></g><g><rect fill="#C0C0C0" fill-opacity="0.2" height="73" stroke="none" transform="matrix(1 0 0 1 -614 -270)" width="179.45703125" x="655" y="391"/></g><g><rect fill="#ffffff" height="73" stroke="none" transform="matrix(1 0 0 1 -614 -270)" width="179.45703125" x="648" y="384"/></g><g><path d=" M 34 114 L 213.45703125 114 L 213.45703125 187 L 34 187 L 34 114 Z Z" fill="none" paint-order="fill stroke markers" stroke="#000000" stroke-dasharray="" stroke-miterlimit="10"/></g><g><path d=" M 34 139 L 213.45703125 139" fill="none" paint-order="fill stroke markers" stroke="#000000" stroke-dasharray="" stroke-miterlimit="10"/></g><g><path d=" M 34 177 L 213.45703125 177" fill="none" paint-order="fill stroke markers" stroke="#000000" stroke-dasharray="" stroke-miterlimit="10"/></g><g><g><path fill="none" stroke="none"/><text dominant-baseline="central" fill="#000000" font-family="Arial" font-size="13px" font-style="normal" font-weight="bold" stroke="none" text-anchor="middle" text-decoration="undefined" transform="matrix(1 0 0 1 -614 -270)" x="738.228515625" y="397.5">UserDTO</text></g></g><g><g><path fill="none" stroke="none"/><text dominant-baseline="central" fill="#000000" font-family="Arial" font-size="13px" font-style="normal" font-weight="normal" stroke="none" text-anchor="start" text-decoration="undefined" transform="matrix(1 0 0 1 -614 -270)" x="653" y="420.5">+username: string {readOnly}</text></g></g><g><g><path fill="none" stroke="none"/><text dominant-baseline="central" fill="#000000" font-family="Arial" font-size="13px" font-style="normal" font-weight="normal" stroke="none" text-anchor="start" text-decoration="undefined" transform="matrix(1 0 0 1 -614 -270)" x="653" y="435.5">+password: string {readOnly}</text></g></g><g><path d=" M 122 68 L 122 114" fill="none" paint-order="fill stroke markers" stroke="#000000" stroke-dasharray="3" stroke-miterlimit="10"/></g><g><path d=" M 117.790482243984 103.83732514237585 L 122 114 L 126.209517756016 103.83732514237585" fill="none" paint-order="fill stroke markers" stroke="#000000" stroke-dasharray="" stroke-miterlimit="10"/></g></g></svg>