<?xml version="1.0" encoding="utf-8"?>
<svg height="106" version="1.1" width="300.59765625" xmlns="http://www.w3.org/2000/svg" xmlns:xlink="http://www.w3.org/1999/xlink"><defs/><g><text dominant-baseline="alphabetic" fill="#cfcfcf" font-family="Arial" font-size="8px" font-style="normal" font-weight="normal" stroke="none" text-anchor="start" text-decoration="undefined" transform="matrix(1 0 0 1 0 0)" x="0" y="0"></text><text dominant-baseline="alphabetic" fill="#cfcfcf" font-family="Arial" font-size="8px" font-style="normal" font-weight="normal" stroke="none" text-anchor="start" text-decoration="undefined" transform="matrix(1 0 0 1 0 0)" x="0" y="12"></text><text dominant-baseline="alphabetic" fill="#cfcfcf" font-family="Arial" font-size="8px" font-style="normal" font-weight="normal" stroke="none" text-anchor="start" text-decoration="undefined" transform="matrix(1 0 0 1 0 0)" x="0" y="24"></text><text dominant-baseline="alphabetic" fill="#cfcfcf" font-family="Arial" font-size="8px" font-style="normal" font-weight="normal" stroke="none" text-anchor="start" text-decoration="undefined" transform="matrix(1 0 0 1 0 0)" x="0" y="36"></text><text dominant-baseline="alphabetic" fill="#cfcfcf" font-family="Arial" font-size="8px" font-style="normal" font-weight="normal" stroke="none" text-anchor="start" text-decoration="undefined" transform="matrix(1 0 0 1 0 0)" x="0" y="48"></text><text dominant-baseline="alphabetic" fill="#cfcfcf" font-family="Arial" font-size="8px" font-style="normal" font-weight="normal" stroke="none" text-anchor="start" text-decoration="undefined" transform="matrix(1 0 0 1 0 0)" x="0" y="60"></text><text dominant-baseline="alphabetic" fill="#cfcfcf" font-family="Arial" font-size="8px" font-style="normal" font-weight="normal" stroke="none" text-anchor="start" text-decoration="undefined" transform="matrix(1 0 0 1 0 0)" x="0" y="72"></text><text dominant-baseline="alphabetic" fill="#cfcfcf" font-family="Arial" font-size="8px" font-style="normal" font-weight="normal" stroke="none" text-anchor="start" text-decoration="undefined" transform="matrix(1 0 0 1 0 0)" x="0" y="84"></text><text dominant-baseline="alphabetic" fill="#cfcfcf" font-family="Arial" font-size="8px" font-style="normal" font-weight="normal" stroke="none" text-anchor="start" text-decoration="undefined" transform="matrix(1 0 0 1 0 0)" x="0" y="96"></text><text dominant-baseline="alphabetic" fill="#cfcfcf" font-family="Arial" font-size="8px" font-style="normal" font-weight="normal" stroke="none" text-anchor="start" text-decoration="undefined" transform="matrix(1 0 0 1 0 0)" x="70" y="0"></text><text dominant-baseline="alphabetic" fill="#cfcfcf" font-family="Arial" font-size="8px" font-style="normal" font-weight="normal" stroke="none" text-anchor="start" text-decoration="undefined" transform="matrix(1 0 0 1 0 0)" x="70" y="12"></text><text dominant-baseline="alphabetic" fill="#cfcfcf" font-family="Arial" font-size="8px" font-style="normal" font-weight="normal" stroke="none" text-anchor="start" text-decoration="undefined" transform="matrix(1 0 0 1 0 0)" x="70" y="24"></text><text dominant-baseline="alphabetic" fill="#cfcfcf" font-family="Arial" font-size="8px" font-style="normal" font-weight="normal" stroke="none" text-anchor="start" text-decoration="undefined" transform="matrix(1 0 0 1 0 0)" x="70" y="36"></text><text dominant-baseline="alphabetic" fill="#cfcfcf" font-family="Arial" font-size="8px" font-style="normal" font-weight="normal" stroke="none" text-anchor="start" text-decoration="undefined" transform="matrix(1 0 0 1 0 0)" x="70" y="48"></text><text dominant-baseline="alphabetic" fill="#cfcfcf" font-family="Arial" font-size="8px" font-style="normal" font-weight="normal" stroke="none" text-anchor="start" text-decoration="undefined" transform="matrix(1 0 0 1 0 0)" x="70" y="60"></text><text dominant-baseline="alphabetic" fill="#cfcfcf" font-family="Arial" font-size="8px" font-style="normal" font-weight="normal" stroke="none" text-anchor="start" text-decoration="undefined" transform="matrix(1 0 0 1 0 0)" x="70" y="72"></text><text dominant-baseline="alphabetic" fill="#cfcfcf" font-family="Arial" font-size="8px" font-style="normal" font-weight="normal" stroke="none" text-anchor="start" text-decoration="undefined" transform="matrix(1 0 0 1 0 0)" x="70" y="84"></text><text dominant-baseline="alphabetic" fill="#cfcfcf" font-family="Arial" font-size="8px" font-style="normal" font-weight="normal" stroke="none" text-anchor="start" text-decoration="undefined" transform="matrix(1 0 0 1 0 0)" x="70" y="96"></text><text dominant-baseline="alphabetic" fill="#cfcfcf" font-family="Arial" font-size="8px" font-style="normal" font-weight="normal" stroke="none" text-anchor="start" text-decoration="undefined" transform="matrix(1 0 0 1 0 0)" x="140" y="0"></text><text dominant-baseline="alphabetic" fill="#cfcfcf" font-family="Arial" font-size="8px" font-style="normal" font-weight="normal" stroke="none" text-anchor="start" text-decoration="undefined" transform="matrix(1 0 0 1 0 0)" x="140" y="12"></text><text dominant-baseline="alphabetic" fill="#cfcfcf" font-family="Arial" font-size="8px" font-style="normal" font-weight="normal" stroke="none" text-anchor="start" text-decoration="undefined" transform="matrix(1 0 0 1 0 0)" x="140" y="24"></text><text dominant-baseline="alphabetic" fill="#cfcfcf" font-family="Arial" font-size="8px" font-style="normal" font-weight="normal" stroke="none" text-anchor="start" text-decoration="undefined" transform="matrix(1 0 0 1 0 0)" x="140" y="36"></text><text dominant-baseline="alphabetic" fill="#cfcfcf" font-family="Arial" font-size="8px" font-style="normal" font-weight="normal" stroke="none" text-anchor="start" text-decoration="undefined" transform="matrix(1 0 0 1 0 0)" x="140" y="48"></text><text dominant-baseline="alphabetic" fill="#cfcfcf" font-family="Arial" font-size="8px" font-style="normal" font-weight="normal" stroke="none" text-anchor="start" text-decoration="undefined" transform="matrix(1 0 0 1 0 0)" x="140" y="60"></text><text dominant-baseline="alphabetic" fill="#cfcfcf" font-family="Arial" font-size="8px" font-style="normal" font-weight="normal" stroke="none" text-anchor="start" text-decoration="undefined" transform="matrix(1 0 0 1 0 0)" x="140" y="72"></text><text dominant-baseline="alphabetic" fill="#cfcfcf" font-family="Arial" font-size="8px" font-style="normal" font-weight="normal" stroke="none" text-anchor="start" text-decoration="undefined" transform="matrix(1 0 0 1 0 0)" x="140" y="84"></text><text dominant-baseline="alphabetic" fill="#cfcfcf" font-family="Arial" font-size="8px" font-style="normal" font-weight="normal" stroke="none" text-anchor="start" text-decoration="undefined" transform="matrix(1 0 0 1 0 0)" x="140" y="96"></text><text dominant-baseline="alphabetic" fill="#cfcfcf" font-family="Arial" font-size="8px" font-style="normal" font-weight="normal" stroke="none" text-anchor="start" text-decoration="undefined" transform="matrix(1 0 0 1 0 0)" x="210" y="0"></text><text dominant-baseline="alphabetic" fill="#cfcfcf" font-family="Arial" font-size="8px" font-style="normal" font-weight="normal" stroke="none" text-anchor="start" text-decoration="undefined" transform="matrix(1 0 0 1 0 0)" x="210" y="12"></text><text dominant-baseline="alphabetic" fill="#cfcfcf" font-family="Arial" font-size="8px" font-style="normal" font-weight="normal" stroke="none" text-anchor="start" text-decoration="undefined" transform="matrix(1 0 0 1 0 0)" x="210" y="24"></text><text dominant-baseline="alphabetic" fill="#cfcfcf" font-family="Arial" font-size="8px" font-style="normal" font-weight="normal" stroke="none" text-anchor="start" text-decoration="undefined" transform="matrix(1 0 0 1 0 0)" x="210" y="36"></text><text dominant-baseline="alphabetic" fill="#cfcfcf" font-family="Arial" font-size="8px" font-style="normal" font-weight="normal" stroke="none" text-anchor="start" text-decoration="undefined" transform="matrix(1 0 0 1 0 0)" x="210" y="48"></text><text dominant-baseline="alphabetic" fill="#cfcfcf" font-family="Arial" font-size="8px" font-style="normal" font-weight="normal" stroke="none" text-anchor="start" text-decoration="undefined" transform="matrix(1 0 0 1 0 0)" x="210" y="60"></text><text dominant-baseline="alphabetic" fill="#cfcfcf" font-family="Arial" font-size="8px" font-style="normal" font-weight="normal" stroke="none" text-anchor="start" text-decoration="undefined" transform="matrix(1 0 0 1 0 0)" x="210" y="72"></text><text dominant-baseline="alphabetic" fill="#cfcfcf" font-family="Arial" font-size="8px" font-style="normal" font-weight="normal" stroke="none" text-anchor="start" text-decoration="undefined" transform="matrix(1 0 0 1 0 0)" x="210" y="84"></text><text dominant-baseline="alphabetic" fill="#cfcfcf" font-family="Arial" font-size="8px" font-style="normal" font-weight="normal" stroke="none" text-anchor="start" text-decoration="undefined" transform="matrix(1 0 0 1 0 0)" x="210" y="96"></text><text dominant-baseline="alphabetic" fill="#cfcfcf" font-family="Arial" font-size="8px" font-style="normal" font-weight="normal" stroke="none" text-anchor="start" text-decoration="undefined" transform="matrix(1 0 0 1 0 0)" x="280" y="0"></text><text dominant-baseline="alphabetic" fill="#cfcfcf" font-family="Arial" font-size="8px" font-style="normal" font-weight="normal" stroke="none" text-anchor="start" text-decoration="undefined" transform="matrix(1 0 0 1 0 0)" x="280" y="12"></text><text dominant-baseline="alphabetic" fill="#cfcfcf" font-family="Arial" font-size="8px" font-style="normal" font-weight="normal" stroke="none" text-anchor="start" text-decoration="undefined" transform="matrix(1 0 0 1 0 0)" x="280" y="24"></text><text dominant-baseline="alphabetic" fill="#cfcfcf" font-family="Arial" font-size="8px" font-style="normal" font-weight="normal" stroke="none" text-anchor="start" text-decoration="undefined" transform="matrix(1 0 0 1 0 0)" x="280" y="36"></text><text dominant-baseline="alphabetic" fill="#cfcfcf" font-family="Arial" font-size="8px" font-style="normal" font-weight="normal" stroke="none" text-anchor="start" text-decoration="undefined" transform="matrix(1 0 0 1 0 0)" x="280" y="48"></text><text dominant-baseline="alphabetic" fill="#cfcfcf" font-family="Arial" font-size="8px" font-style="normal" font-weight="normal" stroke="none" text-anchor="start" text-decoration="undefined" transform="matrix(1 0 0 1 0 0)" x="280" y="60"></text><text dominant-baseline="alphabetic" fill="#cfcfcf" font-family="Arial" font-size="8px" font-style="normal" font-weight="normal" stroke="none" text-anchor="start" text-decoration="undefined" transform="matrix(1 0 0 1 0 0)" x="280" y="72"></text><text dominant-baseline="alphabetic" fill="#cfcfcf" font-family="Arial" font-size="8px" font-style="normal" font-weight="normal" stroke="none" text-anchor="start" text-decoration="undefined" transform="matrix(1 0 0 1 0 0)" x="280" y="84"></text><text dominant-baseline="alphabetic" fill="#cfcfcf" font-family="Arial" font-size="8px" font-style="normal" font-weight="normal" stroke="none" text-anchor="start" text-decoration="undefined" transform="matrix(1 0 0 1 0 0)" x="280" y="96"></text><g><rect fill="#C0C0C0" fill-opacity="0.2" height="86" stroke="none" transform="matrix(1 0 0 1 -630 -342)" width="279.59765625" x="647" y="359"/></g><g><rect fill="#ffffff" height="86" stroke="none" transform="matrix(1 0 0 1 -630 -342)" width="279.59765625" x="640" y="352"/></g><g><path d=" M 10 10 L 289.59765625 10 L 289.59765625 96 L 10 96 L 10 10 Z Z" fill="none" paint-order="fill stroke markers" stroke="#000000" stroke-dasharray="" stroke-miterlimit="10"/></g><g><path d=" M 10 35 L 289.59765625 35" fill="none" paint-order="fill stroke markers" stroke="#000000" stroke-dasharray="" stroke-miterlimit="10"/></g><g><path d=" M 10 73 L 289.59765625 73" fill="none" paint-order="fill stroke markers" stroke="#000000" stroke-dasharray="" stroke-miterlimit="10"/></g><g><g><path fill="none" stroke="none"/><text dominant-baseline="central" fill="#000000" font-family="Arial" font-size="13px" font-style="normal" font-weight="bold" stroke="none" text-anchor="middle" text-decoration="undefined" transform="matrix(1 0 0 1 -630 -342)" x="780.298828125" y="365.5">UserDTO</text></g></g><g><g><path fill="none" stroke="none"/><text dominant-baseline="central" fill="#000000" font-family="Arial" font-size="13px" font-style="normal" font-weight="normal" stroke="none" text-anchor="start" text-decoration="undefined" transform="matrix(1 0 0 1 -630 -342)" x="645" y="388.5">+username: string</text></g></g><g><g><path fill="none" stroke="none"/><text dominant-baseline="central" fill="#000000" font-family="Arial" font-size="13px" font-style="normal" font-weight="normal" stroke="none" text-anchor="start" text-decoration="undefined" transform="matrix(1 0 0 1 -630 -342)" x="645" y="403.5">+password: string</text></g></g><g><g><path fill="none" stroke="none"/><text dominant-baseline="central" fill="#000000" font-family="Arial" font-size="13px" font-style="normal" font-weight="normal" stroke="none" text-anchor="start" text-decoration="undefined" transform="matrix(1 0 0 1 -630 -342)" x="645" y="426.5">+UserDTO(username: string, password: string)</text></g></g></g></svg>